<?xml version="1.0" standalone="no"?>
<!DOCTYPE svg PUBLIC "-//W3C//DTD SVG 20010904//EN"
 "http://www.w3.org/TR/2001/REC-SVG-20010904/DTD/svg10.dtd">
<svg version="1.0" xmlns="http://www.w3.org/2000/svg"
 width="1067.000000pt" height="992.000000pt" viewBox="0 0 1067.000000 992.000000"
 preserveAspectRatio="xMidYMid meet">

<g transform="translate(0.000000,992.000000) scale(0.100000,-0.100000)"
fill="#000000" stroke="none">
<path d="M8077 9729 c-418 -73 -752 -322 -943 -701 -36 -72 -74 -171 -74 -192
0 -6 5 -4 10 6 6 9 18 15 27 14 18 -3 60 41 55 57 -1 5 3 5 9 1 9 -5 10 -2 6
9 -3 9 -2 19 3 22 6 4 10 14 10 23 0 13 -2 14 -9 4 -6 -11 -10 -10 -16 5 -5
10 -7 27 -5 38 7 55 82 153 113 147 9 -2 20 4 23 12 4 11 19 16 46 16 31 0 41
-4 45 -20 3 -11 10 -20 15 -20 14 0 5 45 -9 46 -7 1 -18 2 -23 3 -6 1 -5 9 2
21 8 13 20 19 30 16 10 -2 20 -1 23 4 6 9 -41 61 -48 53 -3 -3 -3 4 -1 14 3
10 14 25 26 32 11 7 17 8 14 2 -14 -21 47 -37 64 -16 10 12 7 91 -4 102 -7 7
22 34 81 74 42 29 67 30 77 3 5 -14 27 -20 25 -6 -3 18 2 32 11 32 5 0 7 -7 4
-15 -5 -11 1 -15 20 -15 14 0 26 -4 26 -10 0 -5 -4 -10 -10 -10 -14 0 -13 -27
2 -36 7 -5 8 -3 3 7 -7 12 -6 12 7 1 12 -10 18 -10 27 2 6 7 9 20 6 28 -4 9 1
23 10 31 9 9 15 19 15 22 -1 4 1 9 4 13 3 3 6 1 6 -4 0 -6 9 -20 20 -31 16
-18 17 -22 5 -27 -8 -3 -15 -1 -15 5 0 5 -6 4 -14 -3 -21 -20 3 -29 30 -11 13
8 24 24 26 35 2 12 9 23 17 26 8 3 11 0 8 -6 -4 -5 -1 -15 6 -21 11 -8 14 -7
14 7 0 9 -5 20 -10 24 -6 4 -4 12 6 22 9 9 14 25 12 36 -2 12 0 18 6 15 5 -4
7 -11 4 -16 -4 -5 -2 -9 4 -9 5 0 13 9 16 20 4 12 11 17 18 13 7 -3 3 3 -7 15
-15 17 -22 19 -33 11 -10 -9 -13 -8 -13 4 0 8 12 20 28 26 85 34 292 61 292
38 0 -13 48 -16 68 -4 7 5 11 5 10 0 -5 -14 6 -15 37 -3 16 6 59 14 95 18 l65
7 -55 6 c-99 12 -233 8 -343 -12z m-339 -214 c-3 -3 -9 2 -12 12 -6 14 -5 15
5 6 7 -7 10 -15 7 -18z m-292 -172 c-10 -10 -19 5 -10 18 6 11 8 11 12 0 2 -7
1 -15 -2 -18z"/>
<path d="M8517 9718 c17 -7 35 -17 40 -22 5 -5 3 -6 -4 -2 -15 8 -18 -10 -3
-19 6 -3 10 -15 10 -27 0 -14 5 -18 16 -14 9 3 18 6 20 6 2 0 4 7 4 15 0 18 5
19 29 4 13 -9 27 -9 47 -2 18 6 38 7 53 1 13 -5 29 -7 35 -5 15 6 -179 65
-234 72 -45 5 -45 5 -13 -7z"/>
<path d="M8265 9670 c4 -6 11 -8 16 -5 14 9 11 15 -7 15 -8 0 -12 -5 -9 -10z"/>
<path d="M8302 9665 c-10 -12 -10 -15 2 -15 7 0 16 7 20 15 7 19 -5 19 -22 0z"/>
<path d="M8616 9637 c3 -10 9 -15 12 -12 3 3 0 11 -7 18 -10 9 -11 8 -5 -6z"/>
<path d="M8800 9635 c14 -8 30 -14 35 -14 6 0 -1 6 -15 14 -14 8 -29 14 -35
14 -5 0 1 -6 15 -14z"/>
<path d="M8045 9610 c3 -5 -21 -6 -54 -4 -61 5 -82 -5 -56 -26 19 -16 19 -37
0 -37 -8 0 -15 9 -15 19 0 21 -15 24 -23 4 -3 -7 3 -20 14 -29 10 -9 19 -12
19 -7 0 5 7 7 15 4 8 -4 15 -1 15 5 0 7 10 9 27 5 27 -7 27 -7 10 11 -10 9
-15 20 -12 23 3 4 9 2 13 -4 10 -16 82 -17 79 -1 -1 7 3 11 10 10 7 -2 10 4 7
12 -4 8 -9 15 -13 16 -3 0 -14 2 -24 4 -9 2 -15 0 -12 -5z"/>
<path d="M8864 9605 c11 -8 24 -15 29 -15 4 0 6 -4 2 -9 -3 -5 0 -13 6 -17 8
-5 9 -3 4 6 -5 8 -4 11 2 7 6 -4 9 -18 8 -32 -2 -14 1 -25 7 -25 6 0 7 -7 4
-16 -3 -8 -2 -12 3 -9 6 3 14 -3 20 -12 6 -10 11 -13 11 -6 0 6 -4 15 -10 18
-24 15 -7 23 23 11 17 -7 38 -11 45 -9 7 3 24 -3 39 -12 44 -29 15 3 -33 36
-84 57 -218 128 -160 84z"/>
<path d="M8125 9600 c3 -5 8 -10 11 -10 2 0 4 5 4 10 0 6 -5 10 -11 10 -5 0
-7 -4 -4 -10z"/>
<path d="M8318 9563 c12 -2 30 -2 40 0 9 3 -1 5 -23 4 -22 0 -30 -2 -17 -4z"/>
<path d="M7848 9498 c10 -13 10 -17 0 -21 -9 -4 -9 -6 -1 -6 20 -2 24 16 5 30
-15 13 -16 12 -4 -3z"/>
<path d="M8856 9482 c-2 -4 4 -13 14 -19 15 -10 17 -9 13 8 -5 20 -18 25 -27
11z"/>
<path d="M8905 9470 c3 -5 11 -10 16 -10 6 0 7 5 4 10 -3 6 -11 10 -16 10 -6
0 -7 -4 -4 -10z"/>
<path d="M9116 9439 c23 -24 31 -42 29 -61 -2 -16 1 -28 6 -28 6 0 7 -5 4 -10
-3 -6 1 -13 9 -16 9 -3 16 -13 16 -20 0 -11 -6 -9 -22 6 -15 13 -25 17 -32 10
-7 -7 -3 -15 10 -25 28 -21 42 -18 58 13 11 20 15 22 16 9 0 -10 5 -15 10 -12
6 3 10 -2 10 -13 0 -22 34 -57 48 -48 6 3 25 -9 43 -27 l33 -32 -29 40 c-54
76 -115 143 -177 196 -41 35 -52 41 -32 18z"/>
<path d="M8847 9409 c7 -7 15 -10 18 -7 3 3 -2 9 -12 12 -14 6 -15 5 -6 -5z"/>
<path d="M7513 9378 c-14 -24 -11 -36 9 -30 14 3 16 7 8 12 -7 4 -9 13 -6 19
4 6 5 11 2 11 -3 0 -8 -6 -13 -12z"/>
<path d="M7551 9317 c-13 -21 -12 -21 5 -5 10 10 16 20 13 22 -3 3 -11 -5 -18
-17z"/>
<path d="M7565 9299 c-4 -5 -18 -14 -32 -20 -13 -5 -22 -13 -19 -18 3 -5 -4
-11 -16 -14 -12 -4 -19 -9 -15 -13 4 -4 -3 -19 -15 -33 -12 -14 8 3 45 39 37
35 67 66 67 67 0 7 -9 2 -15 -8z"/>
<path d="M7460 9290 c0 -5 5 -10 11 -10 5 0 7 5 4 10 -3 6 -8 10 -11 10 -2 0
-4 -4 -4 -10z"/>
<path d="M9100 9292 c0 -7 -7 -12 -16 -12 -8 0 -12 -4 -9 -10 3 -5 10 -10 15
-10 10 0 22 31 15 38 -3 3 -5 0 -5 -6z"/>
<path d="M9046 9272 c-3 -5 4 -18 16 -28 21 -19 21 -19 8 6 -17 33 -17 33 -24
22z"/>
<path d="M7310 9149 c0 -5 4 -8 9 -4 5 3 12 1 16 -5 3 -6 -1 -13 -9 -16 -9 -3
-16 -14 -15 -23 0 -9 3 -11 5 -4 3 7 11 10 17 7 7 -2 18 5 25 16 10 16 10 20
0 18 -7 -2 -12 3 -10 10 1 6 -7 12 -18 12 -11 0 -20 -5 -20 -11z"/>
<path d="M7276 9141 c-12 -5 -15 -10 -9 -14 6 -4 16 0 23 8 14 17 13 17 -14 6z"/>
<path d="M7409 9133 c-13 -16 -12 -17 4 -4 16 13 21 21 13 21 -2 0 -10 -8 -17
-17z"/>
<path d="M9379 9117 c5 -18 13 -42 19 -54 11 -19 10 -22 -7 -20 -15 1 -17 4
-9 14 7 9 7 13 0 13 -6 0 -14 -5 -17 -11 -9 -13 35 -61 50 -55 8 3 10 -5 7
-21 -4 -21 -6 -23 -14 -9 -5 9 -14 16 -21 16 -8 0 -8 -3 1 -9 11 -6 10 -10 -4
-15 -9 -4 -22 -2 -27 3 -13 13 -47 -4 -47 -24 0 -7 10 -17 23 -21 l22 -8 -25
-6 c-14 -4 -28 -2 -32 4 -12 17 -9 -6 2 -24 5 -8 10 -11 10 -6 0 5 8 2 18 -5
15 -13 16 -12 3 4 -11 14 -11 17 1 17 17 0 50 33 43 43 -3 4 -2 5 2 2 3 -3 12
0 19 6 7 6 14 6 18 0 3 -5 14 -7 24 -4 22 5 37 -12 56 -63 8 -21 15 -34 15
-27 2 31 -117 293 -133 293 -2 0 -1 -15 3 -33z m65 -143 c3 -8 2 -12 -4 -9 -6
3 -10 10 -10 16 0 14 7 11 14 -7z m-99 -13 c-3 -5 -1 -12 5 -16 15 -9 12 -25
-4 -19 -8 3 -13 13 -11 22 5 23 4 22 11 22 3 0 3 -4 -1 -9z"/>
<path d="M9340 9000 c-9 -6 -10 -10 -3 -10 6 0 15 5 18 10 8 12 4 12 -15 0z"/>
<path d="M7186 8933 c-6 -14 -5 -15 5 -6 7 7 10 15 7 18 -3 3 -9 -2 -12 -12z"/>
<path d="M7147 8882 c-10 -10 -14 -22 -10 -26 4 -4 1 -11 -6 -15 -9 -6 -10
-11 -2 -15 6 -4 11 -2 11 3 0 6 9 11 20 11 11 0 20 -7 20 -15 0 -8 4 -15 9
-15 5 0 11 -8 13 -17 2 -13 6 -10 16 11 10 22 10 27 0 24 -7 -3 -22 5 -34 16
-16 15 -19 26 -12 39 12 23 -4 22 -25 -1z"/>
<path d="M9310 8863 c0 -4 5 -15 10 -23 8 -13 10 -13 10 2 0 9 -4 20 -10 23
-5 3 -10 3 -10 -2z"/>
<path d="M7026 8703 c-14 -78 -23 -253 -12 -242 2 2 7 29 10 59 4 30 8 66 10
81 1 14 7 33 13 43 6 10 7 35 3 57 -4 21 -5 50 -2 64 2 14 2 25 -1 25 -3 0
-12 -39 -21 -87z"/>
<path d="M9528 8735 c-3 -24 0 -51 7 -67 8 -16 10 -28 5 -28 -5 0 -8 -9 -7
-19 0 -11 5 -17 9 -15 4 3 10 -5 12 -18 13 -59 15 -58 10 7 -3 39 -11 95 -18
125 l-12 55 -6 -40z"/>
<path d="M7192 8600 c0 -14 2 -19 5 -12 2 6 2 18 0 25 -3 6 -5 1 -5 -13z"/>
<path d="M9382 8560 c0 -14 2 -19 5 -12 2 6 2 18 0 25 -3 6 -5 1 -5 -13z"/>
<path d="M7176 8492 c-2 -4 -1 -14 4 -22 7 -11 9 -9 7 8 -1 24 -3 26 -11 14z"/>
<path d="M6952 8443 c-24 -8 -41 -17 -39 -19 5 -5 69 16 82 27 11 11 10 11
-43 -8z"/>
<path d="M6765 8371 c-253 -102 -719 -322 -750 -353 -5 -6 18 4 52 21 73 36
83 38 83 11 0 -14 5 -18 17 -13 11 4 14 3 9 -5 -4 -7 -1 -12 8 -12 9 0 16 -5
16 -11 0 -5 5 -7 12 -3 6 4 8 3 4 -4 -3 -6 -2 -13 4 -17 6 -4 7 -11 4 -17 -12
-18 40 3 59 24 9 11 17 15 17 9 0 -6 7 -8 15 -5 8 4 12 10 9 15 -3 5 2 6 10 3
22 -9 21 -11 -19 -30 -19 -9 -35 -20 -35 -25 0 -5 28 5 63 22 74 37 78 40 47
37 -13 -2 -25 3 -28 11 -3 10 0 12 11 8 8 -3 18 0 20 7 4 10 -1 12 -14 9 -10
-3 -19 0 -19 6 0 6 -7 11 -16 11 -10 0 -14 6 -11 14 3 8 -5 26 -19 41 l-24 26
102 48 c120 56 154 66 161 48 4 -9 6 -9 6 1 1 6 8 12 16 12 9 0 18 7 21 15 4
8 10 12 15 9 5 -3 9 -1 9 5 0 8 23 20 53 27 4 1 10 3 15 4 4 1 11 2 15 1 5 -1
6 3 3 8 -4 5 8 12 25 16 17 4 42 13 56 20 15 8 30 12 34 9 4 -2 24 7 45 21 52
35 36 31 -101 -24z m-458 -256 c0 -8 -4 -12 -9 -9 -5 3 -6 10 -3 15 9 13 12
11 12 -6z"/>
<path d="M9561 8384 c0 -11 3 -14 6 -6 3 7 2 16 -1 19 -3 4 -6 -2 -5 -13z"/>
<path d="M9381 8364 c0 -11 3 -14 6 -6 3 7 2 16 -1 19 -3 4 -6 -2 -5 -13z"/>
<path d="M9562 8340 c0 -14 2 -19 5 -12 2 6 2 18 0 25 -3 6 -5 1 -5 -13z"/>
<path d="M1910 8339 c-41 -4 -95 -15 -120 -23 l-45 -15 58 6 c39 3 57 2 57 -6
0 -6 9 -11 19 -11 11 0 22 -6 24 -12 4 -10 6 -10 6 0 1 7 5 10 11 7 5 -3 15 5
21 19 14 29 23 32 119 35 41 1 77 4 79 7 7 7 -147 2 -229 -7z"/>
<path d="M6815 8340 c-16 -25 -23 -60 -14 -65 5 -4 14 7 20 24 6 17 16 31 23
30 22 -3 59 1 55 6 -8 8 -79 12 -84 5z"/>
<path d="M2190 8329 c120 -22 151 -31 160 -49 7 -13 7 -21 0 -25 -5 -3 -10
-11 -10 -16 0 -6 4 -8 9 -4 5 3 16 -3 23 -12 16 -22 39 -28 32 -9 -3 8 -1 17
5 21 11 6 15 -7 11 -34 -1 -10 4 -11 17 -6 10 4 30 10 45 13 16 2 25 9 21 15
-4 6 3 8 21 3 42 -10 30 1 -31 29 -68 32 -271 85 -317 84 -26 -1 -24 -3 14
-10z m195 -58 c3 -5 2 -12 -3 -15 -5 -3 -9 1 -9 9 0 17 3 19 12 6z"/>
<path d="M6750 8328 c0 -6 3 -8 7 -5 3 4 11 2 18 -3 8 -7 12 -5 12 5 0 8 -9
15 -19 15 -10 0 -18 -5 -18 -12z"/>
<path d="M6910 8330 c0 -5 5 -10 11 -10 5 0 7 5 4 10 -3 6 -8 10 -11 10 -2 0
-4 -4 -4 -10z"/>
<path d="M6840 8310 c0 -5 5 -12 11 -15 6 -5 4 -12 -8 -21 -14 -11 -15 -13 -3
-14 13 0 13 -1 0 -10 -12 -8 -12 -10 -1 -10 8 0 20 -8 28 -17 13 -16 13 -15 2
6 -10 22 -10 23 15 19 15 -3 29 -1 32 3 3 5 10 9 17 9 6 0 2 -6 -8 -14 -11 -8
-23 -12 -27 -10 -5 3 -8 0 -8 -6 0 -8 7 -9 18 -5 9 4 36 14 59 22 45 16 63 30
38 30 -8 0 -15 -5 -15 -10 0 -6 -3 -7 -7 -4 -3 4 -12 2 -20 -4 -7 -6 -13 -8
-13 -4 0 4 7 13 15 19 10 8 12 15 5 26 -8 12 -10 12 -10 1 0 -11 -3 -11 -17 0
-20 17 -16 18 -44 -6 -18 -15 -20 -15 -10 -2 11 14 11 17 0 18 -8 0 -22 2 -31
4 -10 2 -18 -1 -18 -5z"/>
<path d="M9549 8303 c-1 -5 0 -16 1 -27 1 -10 -3 -16 -8 -12 -5 3 -8 -6 -6
-19 1 -14 -1 -25 -6 -25 -13 0 -22 -32 -11 -43 5 -5 5 -22 -1 -44 -5 -19 -8
-37 -5 -39 6 -7 35 103 43 164 4 28 4 52 0 52 -3 0 -7 -3 -7 -7z"/>
<path d="M1632 8265 c-84 -34 -150 -69 -187 -100 -19 -16 -19 -16 3 -5 13 7
34 9 47 6 17 -4 27 -1 34 11 9 16 10 16 11 1 0 -10 7 -15 18 -13 9 2 20 4 23
4 4 1 9 11 12 23 4 12 9 19 13 16 3 -4 13 -1 20 7 8 8 23 12 33 10 13 -2 18 2
17 18 -1 16 8 27 34 39 64 30 6 18 -78 -17z"/>
<path d="M5047 8259 c-22 -19 -31 -43 -47 -118 -12 -51 -19 -99 -17 -105 2 -6
7 8 11 32 5 27 13 42 22 42 9 0 12 -5 9 -12 -4 -7 1 -4 9 6 13 16 13 22 3 35
-9 11 -9 13 0 8 9 -6 11 7 8 48 -4 46 -2 56 15 65 23 13 60 13 60 1 0 -5 22
-9 49 -8 67 3 50 16 -30 23 -59 6 -68 4 -92 -17z"/>
<path d="M5238 8253 c7 -3 16 -2 19 1 4 3 -2 6 -13 5 -11 0 -14 -3 -6 -6z"/>
<path d="M5330 8230 c36 -11 83 -19 105 -19 32 0 22 4 -45 19 -109 24 -144 24
-60 0z"/>
<path d="M1637 8203 c-10 -10 -8 -23 4 -23 5 0 8 4 5 9 -4 5 0 12 6 14 7 3 8
6 2 6 -6 1 -14 -2 -17 -6z"/>
<path d="M5520 8196 c19 -6 40 -14 47 -19 15 -10 9 -43 -8 -39 -10 3 -11 0 -3
-8 14 -14 44 -2 44 17 0 11 8 14 30 11 17 -3 30 0 30 6 0 7 3 7 8 1 4 -5 17
-10 30 -11 51 -2 1 16 -98 36 -116 22 -132 23 -80 6z"/>
<path d="M6816 8201 c-4 -5 3 -7 14 -4 23 6 26 13 6 13 -8 0 -17 -4 -20 -9z"/>
<path d="M6580 8191 c0 -6 4 -13 10 -16 6 -3 7 1 4 9 -7 18 -14 21 -14 7z"/>
<path d="M6644 8185 c-9 -22 1 -29 15 -11 8 10 9 16 1 21 -5 3 -13 -1 -16 -10z"/>
<path d="M2030 8170 l-75 -6 72 -2 c39 -1 75 3 78 8 3 6 5 9 3 8 -2 -1 -37 -4
-78 -8z"/>
<path d="M6720 8160 c-9 -6 -10 -10 -3 -10 6 0 15 5 18 10 8 12 4 12 -15 0z"/>
<path d="M2660 8157 c0 -3 22 -21 49 -41 41 -31 104 -102 72 -82 -6 4 -11 3
-11 -3 0 -5 5 -13 11 -16 6 -4 8 -14 4 -23 -5 -13 -1 -12 15 3 16 14 19 15 15
4 -4 -11 9 -26 44 -50 27 -19 61 -53 76 -76 15 -24 29 -43 32 -43 18 0 -95
145 -168 216 -70 66 -139 121 -139 111z"/>
<path d="M5108 8143 c5 -10 7 -25 4 -33 -3 -10 -1 -12 6 -5 13 12 5 55 -10 55
-5 0 -5 -7 0 -17z"/>
<path d="M1345 8093 c-94 -80 -196 -208 -254 -322 -88 -173 -122 -320 -119
-515 0 -66 3 -106 5 -88 2 18 9 30 14 27 14 -9 11 19 -3 34 -10 11 -10 13 0 7
6 -4 12 -2 12 4 0 6 4 8 10 5 6 -3 7 1 4 9 -3 9 -2 16 4 16 6 0 13 -6 15 -12
4 -10 6 -10 6 0 1 8 -8 16 -19 19 -13 4 -20 14 -21 32 -1 14 -3 45 -5 69 -2
29 0 42 9 42 9 0 9 2 -1 8 -13 9 -11 26 25 162 18 67 61 153 73 145 5 -3 12 0
16 6 4 8 3 9 -4 5 -16 -10 -15 5 3 40 8 16 28 35 46 43 28 12 30 17 25 44 -6
30 -6 30 9 12 16 -19 16 -19 5 3 -9 18 -7 28 9 50 32 45 67 73 95 76 23 3 25
1 14 -13 -12 -14 -11 -14 5 -2 10 8 16 20 13 28 -3 8 -2 11 4 8 5 -3 14 4 20
15 8 15 8 20 -2 20 -6 0 6 18 27 40 55 56 40 50 -40 -17z m-358 -785 c-3 -8
-6 -5 -6 6 -1 11 2 17 5 13 3 -3 4 -12 1 -19z"/>
<path d="M5730 8141 c0 -6 4 -13 10 -16 6 -3 7 1 4 9 -7 18 -14 21 -14 7z"/>
<path d="M1648 8133 c7 -3 16 -2 19 1 4 3 -2 6 -13 5 -11 0 -14 -3 -6 -6z"/>
<path d="M2308 8123 c7 -3 16 -2 19 1 4 3 -2 6 -13 5 -11 0 -14 -3 -6 -6z"/>
<path d="M5143 8103 c-7 -3 -13 -11 -13 -19 0 -10 -5 -12 -12 -8 -10 6 -9 3 0
-8 8 -10 11 -30 9 -47 -3 -17 -1 -31 4 -31 5 0 9 -19 10 -42 1 -41 2 -40 15
22 25 118 21 110 57 104 24 -4 28 -3 17 5 -8 6 -23 11 -32 11 -10 0 -18 4 -18
8 0 9 -17 11 -37 5z"/>
<path d="M5752 8079 c-2 -46 -28 -69 -73 -67 -20 1 -41 -2 -47 -6 -7 -4 -12
-4 -12 1 0 4 -12 9 -27 9 -16 1 -53 4 -83 7 -30 4 -4 -4 59 -18 103 -21 118
-22 143 -9 35 18 50 47 45 87 l-4 32 -1 -36z"/>
<path d="M5258 8063 c6 -2 18 -2 25 0 6 3 1 5 -13 5 -14 0 -19 -2 -12 -5z"/>
<path d="M5318 8053 c7 -3 16 -2 19 1 4 3 -2 6 -13 5 -11 0 -14 -3 -6 -6z"/>
<path d="M5368 8043 c7 -3 16 -2 19 1 4 3 -2 6 -13 5 -11 0 -14 -3 -6 -6z"/>
<path d="M5418 8033 c6 -2 18 -2 25 0 6 3 1 5 -13 5 -14 0 -19 -2 -12 -5z"/>
<path d="M1357 8023 c7 -2 9 -12 6 -21 -4 -14 -3 -14 5 -3 8 11 11 10 15 -5 3
-13 4 -11 4 7 -1 18 -7 25 -22 26 -11 1 -15 -1 -8 -4z"/>
<path d="M4972 8000 c0 -14 2 -19 5 -12 2 6 2 18 0 25 -3 6 -5 1 -5 -13z"/>
<path d="M9476 8005 c-9 -26 -7 -32 5 -12 6 10 9 21 6 23 -2 3 -7 -2 -11 -11z"/>
<path d="M5910 7964 c-97 -52 -230 -133 -230 -140 0 -3 18 5 40 17 l39 22 27
-26 c15 -15 31 -27 37 -27 6 0 8 -3 4 -6 -10 -11 31 -47 44 -39 8 5 10 4 5 -3
-4 -7 -2 -12 4 -12 6 0 8 -4 5 -10 -3 -5 7 -2 24 7 16 10 27 21 25 25 -3 4 1
6 8 3 7 -3 33 8 58 25 25 16 40 30 35 30 -6 0 -16 -5 -23 -12 -9 -9 -15 -9
-24 0 -10 10 -10 15 2 22 8 5 19 6 25 2 5 -3 -1 8 -15 25 -20 24 -28 28 -39
19 -12 -9 -13 -8 -8 7 3 9 3 17 -2 17 -4 0 -13 11 -19 25 -11 23 -9 26 28 45
22 11 40 23 40 25 0 7 1 8 -90 -41z"/>
<path d="M1489 7973 c-13 -16 -12 -17 4 -4 9 7 17 15 17 17 0 8 -8 3 -21 -13z"/>
<path d="M1396 7947 c3 -10 9 -15 12 -12 3 3 0 11 -7 18 -10 9 -11 8 -5 -6z"/>
<path d="M4932 7795 c-18 -93 -32 -180 -32 -192 0 -12 12 -35 26 -52 21 -25
34 -31 64 -31 63 0 88 30 104 125 8 44 13 81 11 83 -5 5 -37 -104 -38 -131 -1
-14 -5 -23 -8 -21 -4 2 -9 -2 -12 -10 -7 -19 -54 -26 -74 -11 -9 7 -14 19 -10
28 3 9 1 17 -4 19 -12 4 -17 188 -5 206 4 7 15 11 24 10 14 -2 16 4 14 32 -2
19 -8 37 -12 40 -5 3 -10 21 -12 40 -2 23 -14 -22 -36 -135z"/>
<path d="M1422 7922 l-12 -25 25 23 c29 27 29 27 12 27 -7 0 -18 -12 -25 -25z"/>
<path d="M7188 7933 c10 -4 10 -8 0 -21 -12 -15 -11 -16 4 -3 19 14 15 32 -5
30 -8 0 -8 -2 1 -6z"/>
<path d="M2690 7887 c42 -45 72 -68 36 -28 -10 11 -15 25 -10 32 4 7 3 10 -4
5 -6 -3 -15 2 -21 11 -6 10 -11 14 -11 9 0 -5 -8 -2 -17 5 -10 7 2 -8 27 -34z"/>
<path d="M7135 7920 c-16 -7 -17 -9 -3 -9 9 -1 20 4 23 9 7 11 7 11 -20 0z"/>
<path d="M7233 7901 c0 -11 5 -18 9 -15 4 3 5 11 1 19 -7 21 -12 19 -10 -4z"/>
<path d="M9425 7889 c-4 -6 -5 -12 -2 -15 2 -3 7 2 10 11 7 17 1 20 -8 4z"/>
<path d="M5131 7874 c0 -11 3 -14 6 -6 3 7 2 16 -1 19 -3 4 -6 -2 -5 -13z"/>
<path d="M7196 7868 c3 -4 9 -8 15 -8 5 0 9 4 9 8 0 5 -7 9 -15 9 -8 0 -12 -4
-9 -9z"/>
<path d="M6064 7844 c-18 -14 -18 -15 4 -4 12 6 22 13 22 15 0 8 -5 6 -26 -11z"/>
<path d="M9388 7828 c-14 -18 -32 -46 -41 -63 -8 -16 -28 -44 -44 -62 -59 -65
-73 -83 -66 -83 4 0 -19 -28 -52 -63 -33 -35 -22 -24 25 23 79 78 127 140 189
243 28 46 22 48 -11 5z"/>
<path d="M5122 7830 c0 -14 2 -19 5 -12 2 6 2 18 0 25 -3 6 -5 1 -5 -13z"/>
<path d="M7007 7833 c-4 -3 -7 -11 -7 -17 0 -6 5 -5 12 2 6 6 9 14 7 17 -3 3
-9 2 -12 -2z"/>
<path d="M2980 7800 c6 -11 13 -20 16 -20 2 0 0 9 -6 20 -6 11 -13 20 -16 20
-2 0 0 -9 6 -20z"/>
<path d="M5112 7780 c0 -14 2 -19 5 -12 2 6 2 18 0 25 -3 6 -5 1 -5 -13z"/>
<path d="M5614 7784 c-18 -14 -18 -15 4 -4 12 6 22 13 22 15 0 8 -5 6 -26 -11z"/>
<path d="M6920 7790 c0 -5 5 -10 11 -10 5 0 7 5 4 10 -3 6 -8 10 -11 10 -2 0
-4 -4 -4 -10z"/>
<path d="M5475 7697 c-298 -197 -611 -443 -922 -724 l-101 -92 -127 60 c-70
33 -130 58 -133 55 -3 -3 -1 -6 5 -6 13 0 59 -40 47 -41 -5 -1 -12 -1 -15 -1
-3 1 -6 -6 -6 -13 0 -11 4 -12 13 -4 8 7 14 7 19 -1 4 -6 13 -9 21 -6 7 3 16
0 20 -5 3 -6 16 -8 27 -5 34 9 82 -20 85 -51 1 -15 -3 -30 -10 -34 -6 -4 5 -7
25 -6 34 1 42 7 38 30 -1 5 3 6 8 3 5 -3 11 1 15 9 3 8 10 15 16 15 6 0 9 -4
6 -9 -3 -5 3 -11 14 -14 24 -6 36 8 15 17 -13 5 -14 9 -3 28 7 13 12 26 13 30
1 17 51 72 101 110 45 34 57 39 65 27 7 -12 9 -11 9 3 0 12 6 15 22 10 16 -4
19 -2 13 9 -5 10 -5 11 3 4 5 -5 12 -19 14 -30 2 -13 12 -20 26 -21 12 -1 20
1 17 4 -10 11 30 31 42 21 8 -7 15 -4 22 10 9 16 8 22 -8 31 -14 7 -18 17 -15
35 2 14 0 25 -4 25 -16 0 -8 34 13 58 25 29 121 102 134 102 5 0 11 5 13 11 2
7 15 2 31 -13 15 -14 23 -29 19 -33 -4 -5 0 -4 8 1 8 5 23 7 33 6 20 -4 22 9
5 27 -11 11 -9 11 8 0 18 -10 20 -16 11 -30 -6 -10 -16 -15 -22 -13 -5 3 -2
-1 8 -9 17 -15 25 -43 8 -32 -5 3 -13 0 -17 -6 -4 -7 -3 -9 4 -5 6 3 13 2 16
-3 4 -5 -7 -18 -24 -27 -16 -10 -30 -22 -30 -27 0 -4 15 4 34 18 35 27 50 57
35 72 -4 4 -3 15 2 23 9 13 10 12 5 -2 -8 -25 13 -33 22 -9 5 14 11 18 21 12
11 -7 9 -11 -8 -20 -11 -7 -21 -16 -21 -22 0 -14 54 29 56 44 0 7 2 20 2 30 1
10 14 22 28 27 29 11 54 3 33 -11 -8 -5 -9 -9 -3 -9 6 0 18 8 25 18 7 9 10 14
5 10 -5 -4 -15 -1 -23 7 -15 16 -48 21 -39 7 3 -5 -11 -9 -32 -10 l-37 -1 30
17 c17 9 34 15 38 14 5 -1 5 2 2 8 -4 6 -4 23 0 38 5 20 8 23 16 11 8 -13 9
-11 9 19 0 4 -8 7 -18 7 -10 0 -17 8 -18 21 -1 23 115 116 144 114 9 -1 36 -2
59 -2 34 -1 39 -4 27 -13 -14 -10 -14 -12 0 -24 13 -11 14 -16 4 -29 -10 -13
-10 -14 0 -8 7 4 19 1 27 -8 19 -19 19 -27 0 -20 -11 5 -13 2 -9 -9 5 -13 24
-4 99 46 51 34 91 65 88 70 -2 4 -11 0 -19 -8 -20 -19 -30 -20 -14 0 10 12 9
15 -7 15 -22 0 -67 43 -56 53 3 4 1 7 -6 7 -8 0 -11 7 -7 15 3 8 1 15 -4 15
-17 0 -11 21 13 41 43 36 11 18 -98 -54z m95 -81 c0 -3 -4 -8 -10 -11 -5 -3
-10 -1 -10 4 0 6 5 11 10 11 6 0 10 -2 10 -4z m-361 -200 c10 -12 8 -17 -9
-26 -20 -10 -21 -10 -11 8 6 11 7 22 4 26 -3 3 -4 6 -1 6 3 0 11 -6 17 -14z
m-399 -340 c0 -2 -7 -7 -16 -10 -8 -3 -12 -2 -9 4 6 10 25 14 25 6z"/>
<path d="M7130 7733 c-44 -15 -75 -22 -78 -15 -1 5 -13 8 -25 5 -18 -4 -19 -3
-7 6 9 7 11 11 3 11 -7 0 -16 -6 -20 -14 -12 -21 -50 -37 -69 -29 -11 4 -15 3
-11 -4 4 -6 1 -14 -5 -16 -10 -4 -10 -6 0 -6 6 -1 12 -6 12 -12 0 -5 -4 -7
-10 -4 -5 3 -10 2 -10 -4 0 -6 -12 -17 -27 -26 -39 -22 -30 -19 166 59 158 63
174 67 183 52 30 -54 191 -221 284 -294 l40 -32 -68 -172 c-37 -94 -66 -174
-63 -176 2 -3 7 3 11 12 7 17 34 23 34 7 0 -6 8 -8 18 -6 21 4 44 -8 42 -21 0
-5 7 -10 17 -12 10 -2 14 0 8 5 -5 4 -10 15 -10 23 0 8 -5 14 -12 13 -6 -2
-11 6 -10 17 1 12 8 20 19 20 10 0 18 7 18 15 0 8 -5 15 -11 15 -5 0 -7 5 -3
12 4 7 3 8 -5 4 -37 -23 -52 52 -23 116 16 35 26 42 59 41 7 -1 11 3 8 7 -3 4
2 11 11 14 9 4 14 9 11 13 -4 3 -2 12 3 18 8 9 4 14 -15 19 -14 4 -23 11 -20
16 3 6 1 10 -4 10 -6 0 -19 8 -30 19 -10 10 -43 37 -74 59 -30 23 -72 63 -93
89 -22 26 -49 56 -62 66 -12 10 -36 38 -53 63 -16 24 -35 44 -42 44 -7 0 -46
-12 -87 -27z"/>
<path d="M7460 7736 c0 -8 -3 -16 -7 -19 -5 -2 -2 -2 5 -1 6 2 12 -1 12 -6 0
-6 6 -10 14 -10 8 0 17 -7 20 -16 4 -12 2 -15 -9 -11 -8 4 -16 3 -19 -1 -3 -4
5 -9 16 -9 21 -2 50 -32 42 -45 -3 -4 2 -5 12 -1 15 5 15 7 0 15 -9 5 -14 13
-11 19 4 5 1 9 -4 9 -6 0 -10 4 -8 8 1 5 -13 25 -30 46 -18 20 -33 30 -33 22z"/>
<path d="M6891 7737 c2 -1 13 -9 24 -17 19 -14 19 -14 6 3 -7 9 -18 17 -24 17
-6 0 -8 -1 -6 -3z"/>
<path d="M6940 7730 c0 -5 5 -10 10 -10 6 0 10 5 10 10 0 6 -4 10 -10 10 -5 0
-10 -4 -10 -10z"/>
<path d="M3025 7653 c1 -43 -3 -84 -8 -90 -7 -10 -4 -13 12 -13 15 0 20 4 15
13 -5 7 2 5 16 -4 19 -12 28 -31 36 -76 15 -86 16 -88 83 -112 47 -17 59 -25
54 -38 -4 -11 -3 -14 5 -9 7 4 12 3 12 -3 0 -5 -8 -12 -17 -15 -13 -3 -12 -4
3 -3 12 1 31 -9 44 -23 12 -14 19 -19 15 -12 -3 6 -1 12 4 12 6 0 11 7 11 16
0 14 2 14 16 -1 10 -10 20 -12 28 -7 6 5 31 8 56 6 l45 -3 -35 14 c-19 8 -94
32 -166 55 l-132 41 -17 87 c-14 71 -70 242 -79 242 -1 0 -1 -35 -1 -77z"/>
<path d="M5839 7713 c-13 -17 -13 -17 6 -3 11 8 22 16 24 17 2 2 0 3 -6 3 -6
0 -17 -8 -24 -17z"/>
<path d="M6625 7670 c3 -5 8 -10 11 -10 2 0 4 5 4 10 0 6 -5 10 -11 10 -5 0
-7 -4 -4 -10z"/>
<path d="M6688 7624 c-7 -8 -17 -20 -23 -27 -12 -15 -16 -59 -4 -51 16 10 9
-9 -8 -23 -21 -16 5 -6 125 47 72 33 94 50 35 28 -24 -9 -38 -9 -56 -1 -14 7
-28 8 -33 3 -12 -12 -38 5 -30 18 4 6 13 9 21 5 8 -3 15 -3 15 0 0 13 -31 14
-42 1z"/>
<path d="M7570 7630 c0 -5 5 -10 11 -10 5 0 7 5 4 10 -3 6 -8 10 -11 10 -2 0
-4 -4 -4 -10z"/>
<path d="M2897 7539 c4 -13 8 -18 11 -10 2 7 -1 18 -6 23 -8 8 -9 4 -5 -13z"/>
<path d="M2922 7537 c0 -6 -3 -23 -6 -37 -5 -17 -4 -19 2 -7 4 11 8 -11 9 -59
1 -70 13 -107 29 -91 4 4 7 21 6 39 -1 23 2 28 8 18 8 -13 10 -12 10 3 0 9 -4
17 -10 17 -5 0 -10 7 -10 15 0 8 8 15 18 15 16 1 16 1 0 11 -10 5 -18 17 -18
24 0 8 -5 15 -11 15 -6 0 -9 6 -6 14 3 8 0 19 -7 25 -9 8 -13 7 -14 -2z m28
-71 c0 -3 -4 -8 -10 -11 -5 -3 -10 -1 -10 4 0 6 5 11 10 11 6 0 10 -2 10 -4z
m-3 -108 c-3 -8 -6 -5 -6 6 -1 11 2 17 5 13 3 -3 4 -12 1 -19z"/>
<path d="M6238 7514 c-27 -13 -48 -27 -48 -29 0 -3 14 1 30 10 19 10 30 11 30
5 0 -6 5 -8 10 -5 6 3 10 -1 10 -10 0 -9 4 -14 9 -10 5 3 12 1 16 -5 10 -16
-27 -11 -39 6 -7 9 -18 12 -29 9 -15 -6 -15 -9 -2 -22 15 -15 11 -38 -5 -28
-5 3 -11 1 -15 -5 -4 -6 10 -10 35 -10 25 0 39 -4 35 -10 -3 -5 -2 -10 4 -10
6 0 14 -11 17 -26 5 -18 1 -29 -12 -40 -11 -8 28 8 85 37 90 46 101 54 82 61
-13 4 -27 6 -31 3 -15 -9 -22 15 -10 30 10 12 9 15 -6 16 -11 1 -26 2 -34 3
-8 0 -15 11 -15 23 0 11 -3 25 -7 29 -5 4 -8 2 -8 -4 0 -14 -32 -16 -45 -3 -6
6 -28 0 -57 -15z"/>
<path d="M3005 7487 c-12 -9 -14 -16 -7 -21 6 -3 16 3 22 14 13 24 10 25 -15
7z"/>
<path d="M8785 7490 c-3 -6 1 -7 9 -4 18 7 21 14 7 14 -6 0 -13 -4 -16 -10z"/>
<path d="M6528 7464 c-27 -13 -48 -27 -48 -29 0 -5 99 42 109 51 13 11 -20 0
-61 -22z"/>
<path d="M7776 7475 c-9 -26 -7 -32 5 -12 6 10 9 21 6 23 -2 3 -7 -2 -11 -11z"/>
<path d="M9062 7458 c-23 -16 -54 -31 -70 -34 -48 -8 -62 -15 -62 -30 0 -12
-2 -12 -14 -2 -8 7 -11 17 -8 22 3 5 -2 6 -12 3 -10 -4 -22 -7 -27 -7 -6 0 -7
-5 -4 -10 4 -6 10 -8 15 -5 5 3 7 -7 6 -22 -3 -29 -25 -44 -127 -86 -73 -31
-105 -47 -93 -47 17 0 131 48 219 92 71 35 225 141 225 153 0 7 0 7 -48 -27z"/>
<path d="M7754 7426 c-3 -9 -12 -16 -20 -16 -7 0 -18 -8 -23 -17 -6 -11 -11
-13 -11 -5 0 9 -5 10 -16 4 -9 -5 -26 -8 -38 -5 -13 2 -10 -1 9 -11 17 -8 26
-15 21 -15 -5 -1 -3 -7 3 -15 13 -15 12 -57 -1 -104 -22 -75 2 -36 46 74 26
64 45 119 42 122 -3 3 -8 -3 -12 -12z"/>
<path d="M8650 7430 c-9 -6 -10 -10 -3 -10 6 0 15 5 18 10 8 12 4 12 -15 0z"/>
<path d="M5337 7397 c3 -4 -1 -15 -9 -24 -7 -9 2 -6 20 7 17 13 32 24 32 24 0
1 -11 1 -24 1 -13 0 -22 -4 -19 -8z"/>
<path d="M6258 7383 c7 -3 16 -2 19 1 4 3 -2 6 -13 5 -11 0 -14 -3 -6 -6z"/>
<path d="M8746 7381 c-4 -7 -5 -15 -2 -18 9 -9 19 4 14 18 -4 11 -6 11 -12 0z"/>
<path d="M8116 7340 c-20 -50 -20 -56 -1 -40 9 7 13 15 11 18 -3 2 1 17 10 33
8 16 10 29 5 29 -5 0 -16 -18 -25 -40z"/>
<path d="M8268 7363 c7 -3 16 -2 19 1 4 3 -2 6 -13 5 -11 0 -14 -3 -6 -6z"/>
<path d="M5956 7352 c-2 -4 4 -8 14 -8 10 0 16 4 14 8 -3 4 -9 8 -14 8 -5 0
-11 -4 -14 -8z"/>
<path d="M8442 7343 c-15 -3 -22 -10 -18 -19 3 -8 1 -14 -4 -14 -5 0 -7 -7 -3
-16 4 -11 13 -13 35 -8 23 5 29 3 26 -7 -3 -8 -12 -13 -21 -13 -9 1 -14 -2
-11 -7 3 -5 -2 -9 -10 -9 -8 0 -20 -8 -25 -17 -9 -16 -10 -16 -11 5 0 12 -4
22 -10 22 -5 0 -10 -9 -10 -20 0 -13 -7 -20 -19 -20 -11 0 -21 -3 -24 -7 -2
-5 -3 -3 -1 4 3 13 -45 28 -55 17 -3 -4 0 -9 7 -11 19 -7 14 -23 -10 -33 -33
-13 38 -13 157 0 94 11 201 37 158 39 -12 1 -23 7 -26 14 -3 9 -9 9 -26 -1
-24 -14 -28 -7 -7 13 7 8 17 11 21 7 5 -4 5 -2 2 5 -7 12 -31 12 -43 0 -4 -4
-12 -7 -18 -7 -6 0 -3 7 8 15 12 9 16 20 11 32 -5 12 -9 14 -12 6 -3 -7 -12
-13 -20 -13 -11 0 -14 7 -9 25 4 14 3 24 -1 24 -5 -1 -18 -4 -31 -6z m18 -111
c0 -4 -9 -8 -20 -9 -11 -1 -20 2 -20 8 0 5 9 9 20 9 11 0 20 -4 20 -8z m45 -2
c-3 -5 -10 -10 -16 -10 -5 0 -9 5 -9 10 0 6 7 10 16 10 8 0 12 -4 9 -10z"/>
<path d="M1151 7324 c0 -11 3 -14 6 -6 3 7 2 16 -1 19 -3 4 -6 -2 -5 -13z"/>
<path d="M5909 7319 l-24 -21 28 16 c15 9 27 15 28 14 0 -2 2 -15 3 -30 2 -28
-7 -37 -19 -18 -3 6 -12 10 -18 10 -8 0 -8 -3 -2 -8 6 -4 11 -20 12 -35 l1
-28 -19 22 c-10 12 -19 17 -19 11 0 -6 -8 -13 -17 -15 -15 -4 -14 -6 5 -12 20
-7 21 -10 9 -24 -24 -28 -26 -37 -7 -37 10 0 17 4 14 7 -2 4 1 11 7 15 7 4 9
3 5 -4 -3 -6 1 -15 10 -20 15 -8 14 -10 -2 -16 -13 -5 -15 -9 -6 -15 8 -5 -12
-25 -59 -62 -91 -68 -183 -133 -186 -131 -10 7 -33 0 -31 -10 2 -8 -7 -13 -20
-12 -14 0 -21 -4 -18 -11 3 -10 -51 -46 -74 -49 -16 -3 -68 -51 -63 -58 5 -9
-85 -98 -99 -98 -5 0 -26 -16 -48 -36 l-39 -36 -25 27 c-14 15 -31 25 -38 22
-11 -4 -11 -6 0 -6 7 -1 10 -5 7 -11 -3 -5 3 -10 14 -10 26 0 27 -15 4 -29
-10 -6 -14 -11 -9 -11 5 0 -20 -29 -55 -64 -35 -35 -67 -62 -71 -60 -5 3 -6
10 -2 15 3 6 -4 8 -18 4 -13 -2 -36 -8 -52 -11 -24 -6 -28 -4 -23 10 9 23 -6
20 -21 -5 -8 -12 -9 -18 -3 -14 13 8 43 -19 33 -30 -4 -5 -1 -5 6 -1 6 4 12 5
12 2 0 -5 -66 -36 -76 -36 -2 0 -4 4 -4 10 0 5 3 9 8 7 8 -2 12 6 12 25 0 7
-7 3 -15 -9 -16 -24 -71 -25 -86 -2 -5 8 -9 10 -9 4 0 -5 -7 -2 -14 8 -9 12
-16 14 -21 8 -3 -6 23 -29 62 -53 37 -24 149 -96 248 -161 140 -93 171 -109
137 -76 -32 31 -40 44 -30 50 10 7 9 9 -4 9 -11 0 -15 6 -11 19 3 14 -2 20
-21 23 -14 3 -23 1 -20 -3 11 -19 -34 -7 -95 23 -63 33 -100 76 -85 100 4 7 3
8 -4 4 -7 -4 -12 -1 -12 8 0 14 27 15 49 1 6 -3 6 7 1 26 -10 35 -3 59 11 38
7 -11 9 -11 9 1 0 13 1 13 10 0 10 -16 50 -23 50 -8 0 5 15 1 33 -7 l32 -16
-25 19 c-31 25 -31 24 125 157 227 192 605 465 818 589 26 15 47 30 47 32 0 6
-75 -30 -78 -39 -2 -4 -8 -4 -13 -1 -6 3 -5 11 2 20 10 12 9 13 -7 7 -17 -6
-17 -5 -5 10 12 15 10 17 -27 17 -39 0 -58 16 -53 46 0 6 -5 17 -13 23 -10 9
-19 7 -37 -10z m-711 -1074 c-3 -3 -13 -2 -22 1 -14 5 -15 9 -4 15 13 8 36 -6
26 -16z"/>
<path d="M5246 7313 c-6 -14 -5 -15 5 -6 7 7 10 15 7 18 -3 3 -9 -2 -12 -12z"/>
<path d="M6228 7304 c-38 -20 -36 -28 2 -9 17 9 30 18 30 20 0 7 -1 6 -32 -11z"/>
<path d="M2945 7300 c-3 -5 -1 -10 4 -10 6 0 11 5 11 10 0 6 -2 10 -4 10 -3 0
-8 -4 -11 -10z"/>
<path d="M5965 7290 c3 -5 14 -10 23 -10 15 0 15 2 2 10 -20 13 -33 13 -25 0z"/>
<path d="M6164 7264 c-18 -14 -18 -15 4 -4 12 6 22 13 22 15 0 8 -5 6 -26 -11z"/>
<path d="M8062 7202 c-37 -91 -498 -1252 -582 -1464 l-58 -147 40 -26 c61 -41
193 -170 248 -244 27 -37 70 -105 95 -152 26 -46 44 -75 40 -64 -4 11 -10 30
-12 43 -3 12 -10 25 -15 28 -5 3 -3 13 4 22 10 12 10 14 1 8 -8 -4 -13 -2 -13
7 0 8 -6 17 -13 20 -7 2 -13 17 -15 32 l-2 28 21 -27 c22 -28 44 -25 36 5 -3
11 -1 19 4 19 5 0 9 7 9 15 0 9 -9 15 -23 15 -13 0 -28 5 -35 12 -9 9 -12 8
-12 -4 0 -10 -8 -16 -19 -15 -16 1 -18 4 -8 17 6 8 18 21 26 28 13 10 13 12
-2 12 -9 0 -17 5 -17 10 0 6 -7 10 -15 10 -9 0 -12 -6 -8 -17 6 -16 4 -16 -15
1 -12 11 -22 16 -22 12 0 -4 -9 -2 -21 4 -12 7 -18 18 -15 26 4 9 2 12 -5 8
-6 -3 -25 7 -42 24 -18 17 -60 57 -94 90 -38 35 -63 67 -63 79 0 28 25 75 35
65 4 -4 3 2 -3 13 -7 15 -7 25 1 36 14 18 32 14 61 -12 10 -10 24 -15 30 -11
7 4 5 8 -6 10 -18 3 -33 32 -17 32 6 0 7 5 3 12 -4 7 -3 8 5 4 6 -4 9 -12 6
-17 -4 -5 3 -9 15 -9 12 0 18 -4 15 -10 -3 -5 -2 -10 4 -10 10 0 27 -39 23
-53 -2 -5 3 -7 9 -5 11 4 68 126 85 183 l7 20 -23 -20 c-16 -14 -24 -16 -27
-7 -7 18 -24 15 -21 -4 2 -10 -2 -19 -9 -21 -7 -3 -9 3 -6 16 4 17 1 21 -21
21 -17 0 -25 4 -20 11 4 8 0 8 -15 0 -16 -9 -21 -9 -21 1 0 9 -3 9 -11 -2 -9
-12 -10 -12 -5 3 3 10 6 21 6 23 0 3 4 2 10 -1 5 -3 7 0 4 8 -3 8 -1 18 5 22
6 3 11 -1 11 -9 0 -8 8 -20 18 -25 14 -8 17 -5 16 17 -1 36 -14 63 -26 56 -14
-9 -1 52 23 101 14 31 25 41 44 43 15 1 24 -2 20 -8 -3 -6 3 -10 14 -10 12 0
21 5 21 11 0 5 5 7 10 4 6 -3 10 -1 10 5 0 6 -8 14 -17 17 -15 6 -15 7 3 13
23 9 56 1 48 -11 -3 -5 -9 -7 -14 -4 -5 3 -5 -9 0 -26 8 -26 7 -29 -5 -19 -22
18 -41 7 -21 -12 9 -9 16 -24 16 -32 0 -9 5 -16 11 -16 7 0 9 -13 5 -37 -4
-27 4 -13 30 47 77 183 104 253 100 257 -2 2 -9 -11 -15 -29 -12 -35 -51 -78
-51 -55 0 8 -4 7 -10 -3 -8 -12 -10 -12 -10 -1 0 8 -3 11 -6 8 -4 -4 -1 -15 7
-24 7 -10 9 -15 4 -10 -4 4 -17 -1 -28 -10 -18 -16 -20 -16 -14 -1 3 10 0 19
-9 22 -9 3 -12 1 -9 -4 3 -6 -1 -10 -10 -10 -9 0 -28 -12 -42 -27 l-27 -28 18
28 c9 16 15 34 13 40 -2 7 3 18 11 26 12 12 15 12 23 0 6 -10 9 -11 9 -1 0 7
-7 15 -16 19 -8 3 -13 12 -10 20 3 8 1 11 -4 8 -17 -10 -11 7 8 22 9 8 11 12
5 8 -9 -4 -12 2 -11 19 1 15 6 26 11 26 4 0 6 4 2 9 -6 11 22 89 42 112 7 9
11 18 8 21 -3 2 11 5 31 6 43 2 42 1 46 32 4 28 22 62 31 61 21 -3 26 0 21 13
-3 8 -12 12 -20 9 -9 -3 -14 2 -14 16 0 12 -6 21 -12 21 -10 0 -9 3 1 9 11 7
11 9 0 13 -11 4 -7 23 19 89 45 115 68 154 88 154 9 0 19 9 21 20 7 39 9 43
23 61 9 11 10 15 3 10 -9 -5 -13 2 -13 23 0 17 5 31 10 31 6 0 10 9 10 21 0
12 8 23 20 26 11 3 20 13 20 22 0 14 -2 14 -10 1 -5 -8 -12 -11 -15 -8 -4 4 2
14 13 24 15 13 18 22 12 34 -6 12 -3 34 11 70 31 83 16 68 -19 -18z m-212
-712 c0 -5 -2 -10 -4 -10 -3 0 -8 5 -11 10 -3 6 -1 10 4 10 6 0 11 -4 11 -10z
m-230 -574 c0 -3 -4 -8 -10 -11 -5 -3 -10 -1 -10 4 0 6 5 11 10 11 6 0 10 -2
10 -4z m-3 -118 c-3 -7 -5 -2 -5 12 0 14 2 19 5 13 2 -7 2 -19 0 -25z"/>
<path d="M2940 7260 c0 -5 5 -10 11 -10 5 0 7 5 4 10 -3 6 -8 10 -11 10 -2 0
-4 -4 -4 -10z"/>
<path d="M3543 7257 c15 -6 25 -17 23 -24 -3 -7 1 -10 10 -6 10 4 12 0 8 -11
-4 -12 -2 -15 9 -10 9 3 20 -2 26 -15 6 -11 20 -19 30 -18 11 0 17 5 15 9 -3
5 16 6 43 4 l48 -4 -45 20 c-50 22 -180 69 -189 67 -3 -1 7 -6 22 -12z"/>
<path d="M8320 7250 c0 -5 5 -10 10 -10 6 0 10 5 10 10 0 6 -4 10 -10 10 -5 0
-10 -4 -10 -10z"/>
<path d="M2978 7243 c7 -3 16 -2 19 1 4 3 -2 6 -13 5 -11 0 -14 -3 -6 -6z"/>
<path d="M8628 7233 c7 -3 16 -2 19 1 4 3 -2 6 -13 5 -11 0 -14 -3 -6 -6z"/>
<path d="M1152 7210 c0 -14 2 -19 5 -12 2 6 2 18 0 25 -3 6 -5 1 -5 -13z"/>
<path d="M3048 7223 c7 -3 16 -2 19 1 4 3 -2 6 -13 5 -11 0 -14 -3 -6 -6z"/>
<path d="M3148 7220 c-15 -4 -29 -5 -32 -2 -3 3 -6 1 -6 -5 0 -5 48 -24 108
-42 145 -44 435 -150 611 -222 79 -32 146 -57 149 -54 3 2 -6 9 -19 14 -13 5
-33 18 -45 29 -11 11 -35 23 -52 27 -33 7 -41 20 -19 28 7 3 6 6 -5 6 -9 1
-20 -4 -23 -9 -4 -7 -13 -7 -26 0 -10 6 -19 9 -19 6 0 -5 -78 18 -137 40 -24
9 -40 20 -38 24 3 5 -10 14 -29 20 -26 8 -33 15 -29 27 5 12 3 14 -7 8 -9 -5
-11 -4 -6 3 14 23 -6 34 -21 12 -15 -21 -16 -21 -36 -3 -11 10 -17 12 -13 6
19 -32 -118 -1 -181 42 -28 19 -30 23 -18 36 13 12 10 14 -19 13 -19 -1 -40
-5 -47 -9 -8 -5 -10 -4 -5 3 8 13 2 14 -36 2z"/>
<path d="M7634 7127 c-17 -34 -36 -74 -42 -89 -6 -16 -17 -28 -24 -28 -9 0 -9
-3 -1 -11 13 -13 -22 -129 -39 -129 -5 0 -7 -4 -3 -9 8 -13 -14 -25 -49 -25
-32 -1 -46 -20 -21 -30 9 -3 13 -2 10 4 -3 6 -1 10 4 10 6 0 11 -13 11 -30 0
-21 -4 -28 -14 -24 -13 5 -13 1 -4 -24 10 -25 8 -38 -7 -74 -32 -71 -46 -90
-60 -78 -9 8 -15 8 -20 0 -3 -5 -1 -10 5 -10 6 0 8 -4 5 -10 -3 -5 -2 -10 4
-10 10 0 -5 -47 -19 -60 -3 -3 -6 -18 -8 -35 -2 -16 -9 -34 -15 -40 -7 -5 -12
-20 -11 -33 1 -13 -9 -44 -21 -70 -27 -56 -44 -98 -74 -174 -21 -53 -55 -97
-70 -90 -3 1 -7 -6 -9 -18 -4 -27 -42 -27 -42 0 0 14 7 20 23 20 18 0 19 2 7
11 -13 9 -13 10 2 6 22 -8 39 14 33 43 -5 26 -15 40 -15 21 0 -7 -5 -9 -12 -5
-7 4 -8 3 -4 -5 4 -6 12 -8 18 -5 7 5 8 2 4 -5 -5 -7 -15 -10 -23 -7 -11 5
-13 2 -9 -9 4 -10 2 -14 -5 -9 -6 3 -9 17 -6 30 2 14 0 27 -4 30 -5 3 -9 -1
-10 -8 0 -7 -4 -3 -10 10 -5 13 -13 20 -19 17 -13 -8 -13 -9 11 55 22 57 36
73 54 62 33 -21 45 -12 45 33 0 29 -5 48 -14 51 -7 3 -13 13 -12 22 2 30 40
122 50 122 5 0 21 -10 34 -22 14 -13 22 -18 19 -12 -4 7 2 14 14 17 23 6 17
27 -7 27 -8 0 -12 5 -9 10 4 6 11 8 16 5 5 -4 4 6 -2 22 -17 43 -20 66 -9 73
14 9 81 -1 75 -10 -3 -5 4 -8 15 -7 19 1 19 3 6 13 -9 6 -16 19 -16 28 0 10
-5 14 -12 10 -7 -5 -8 -3 -2 7 4 8 9 24 10 36 1 17 -2 20 -11 13 -21 -17 -35
11 -25 50 22 90 15 84 88 64 18 -5 22 -2 23 17 0 13 3 18 6 12 2 -7 9 -13 15
-13 6 0 4 8 -4 18 -9 9 -13 23 -11 30 3 6 -2 12 -11 12 -10 0 -16 9 -17 23 0
12 -4 31 -8 42 -7 18 -48 -79 -366 -886 l-57 -145 -142 0 c-136 0 -281 -19
-339 -45 -21 -9 -21 -9 3 -4 14 3 49 8 79 12 43 5 52 3 46 -7 -6 -10 -3 -12
13 -8 12 4 25 2 28 -4 3 -5 15 -7 26 -4 12 2 27 -2 35 -10 17 -17 37 -19 27
-2 -4 7 -3 8 5 4 6 -4 19 -2 27 5 12 10 13 9 8 -5 -3 -9 -1 -16 5 -16 20 0 11
-16 -10 -17 -26 -2 -33 -8 -24 -22 9 -16 25 -13 25 4 0 8 6 12 14 9 17 -6 31
12 16 21 -18 11 -11 27 10 20 13 -4 22 -1 26 9 3 9 12 16 19 16 7 0 15 5 17
11 2 5 23 13 46 16 39 5 45 10 67 54 26 50 23 49 90 40 6 -1 3 -6 -5 -12 -12
-8 -10 -9 8 -4 22 6 32 -10 10 -17 -7 -3 -5 -7 6 -11 9 -4 15 -3 12 2 -3 5 3
11 14 14 17 4 18 2 10 -14 -9 -15 -8 -17 7 -12 16 6 16 5 4 -10 -7 -9 -11 -17
-8 -17 3 0 -1 -24 -9 -52 -31 -119 -17 -85 177 402 303 765 349 883 346 886
-1 2 -16 -25 -33 -59z m-347 -613 c-3 -3 -12 -4 -19 -1 -8 3 -5 6 6 6 11 1 17
-2 13 -5z m-447 -604 c0 -5 -8 -10 -17 -10 -15 0 -16 2 -3 10 19 12 20 12 20
0z"/>
<path d="M3770 7170 c8 -5 20 -10 25 -10 6 0 3 5 -5 10 -8 5 -19 10 -25 10 -5
0 -3 -5 5 -10z"/>
<path d="M3856 7132 c35 -18 50 -32 46 -42 -3 -8 -1 -12 3 -8 4 4 17 -3 29
-15 22 -23 58 -29 73 -13 5 6 2 6 -7 1 -12 -6 -12 -5 -4 4 9 9 17 10 30 2 11
-6 37 -17 59 -25 22 -7 49 -17 60 -20 19 -7 19 -7 1 4 -21 14 -325 140 -335
140 -3 -1 17 -13 45 -28z"/>
<path d="M4900 7140 c6 -11 13 -20 16 -20 2 0 0 9 -6 20 -6 11 -13 20 -16 20
-2 0 0 -9 6 -20z"/>
<path d="M981 7114 c-2 -42 48 -211 87 -295 117 -255 333 -455 604 -559 138
-53 373 -83 498 -63 45 8 26 9 -100 10 -144 0 -223 9 -310 35 -72 22 -140 51
-140 59 0 4 -17 13 -37 18 -55 15 -182 93 -225 138 -21 21 -39 50 -40 64 -2
29 -24 54 -33 39 -14 -23 -90 42 -101 87 -4 13 -11 23 -18 23 -6 0 -5 4 3 9
11 7 10 11 -6 22 -13 8 -18 19 -15 31 3 14 -2 21 -17 25 -11 3 -18 10 -14 16
3 6 1 7 -5 3 -11 -6 -16 6 -13 27 0 4 -4 7 -10 7 -5 0 -7 5 -4 10 3 6 1 10 -5
10 -6 0 -9 4 -6 9 3 5 -1 14 -10 21 -8 7 -13 19 -10 27 3 7 1 13 -4 13 -10 0
-32 67 -54 170 -8 36 -14 55 -15 44z"/>
<path d="M8085 7117 c-4 -10 -5 -21 -1 -24 10 -10 18 4 13 24 -4 17 -4 17 -12
0z"/>
<path d="M4969 7093 l-24 -28 28 24 c25 23 32 31 24 31 -2 0 -14 -12 -28 -27z"/>
<path d="M8209 7081 c-8 -17 -21 -31 -29 -31 -8 0 -22 -5 -30 -11 -13 -9 -13
-10 1 -6 13 4 16 -2 14 -39 -1 -24 -1 -43 1 -41 7 9 63 151 60 154 -2 2 -10
-10 -17 -26z"/>
<path d="M4865 7054 c-16 -7 -25 -13 -20 -14 6 0 3 -5 -5 -10 -8 -5 -10 -10
-3 -10 6 0 10 -8 8 -17 -1 -10 -7 -17 -13 -16 -5 1 -12 -7 -15 -17 -4 -14 12
-5 50 29 30 27 55 52 56 57 3 12 -27 12 -58 -2z m35 -7 c0 -2 -12 -14 -27 -28
-15 -13 -21 -16 -14 -6 7 9 10 17 5 18 -5 0 0 4 11 9 25 11 25 11 25 7z"/>
<path d="M7406 7034 c-4 -9 -4 -19 -1 -22 2 -3 7 3 11 12 4 9 4 19 1 22 -2 3
-7 -3 -11 -12z"/>
<path d="M3906 7013 c-6 -14 -5 -15 5 -6 7 7 10 15 7 18 -3 3 -9 -2 -12 -12z"/>
<path d="M4780 7009 c0 -5 5 -7 10 -4 6 3 10 8 10 11 0 2 -4 4 -10 4 -5 0 -10
-5 -10 -11z"/>
<path d="M5550 6960 c14 -9 13 -11 -9 -14 -25 -3 -15 -11 16 -13 34 -2 35 -1
18 18 -10 10 -23 19 -29 19 -6 0 -4 -5 4 -10z"/>
<path d="M5369 6943 c-13 -16 -12 -17 4 -4 9 7 17 15 17 17 0 8 -8 3 -21 -13z"/>
<path d="M5475 6950 c-3 -6 1 -7 9 -4 18 7 21 14 7 14 -6 0 -13 -4 -16 -10z"/>
<path d="M4777 6935 c-8 -8 -16 -12 -18 -10 -3 2 -10 -8 -17 -23 -11 -24 -9
-23 23 8 19 19 35 35 35 37 0 7 -9 2 -23 -12z"/>
<path d="M8136 6915 c-16 -24 -39 -35 -33 -16 1 5 -2 10 -8 10 -5 1 -10 -7
-11 -18 -1 -10 -4 -23 -8 -30 -5 -7 -1 -9 11 -4 14 5 16 4 7 -8 -5 -8 -11 -32
-13 -54 -1 -22 -5 -49 -8 -60 -12 -45 7 -4 46 94 42 105 47 132 17 86z"/>
<path d="M4265 6910 c-16 -7 -17 -9 -3 -9 9 -1 20 4 23 9 7 11 7 11 -20 0z"/>
<path d="M2880 6881 c13 -11 29 -17 35 -13 5 3 4 -2 -4 -11 -13 -16 -12 -17
13 -8 17 7 26 7 26 0 0 -6 7 -6 18 -1 20 10 267 -70 255 -83 -5 -4 -2 -5 4 -1
16 9 188 -49 225 -75 15 -10 32 -19 38 -19 5 0 10 -7 10 -16 0 -12 3 -14 13
-6 8 7 18 7 27 2 8 -6 25 -10 37 -10 63 0 257 -100 220 -113 -6 -2 0 -3 15 -1
15 2 34 -3 43 -12 8 -8 20 -12 27 -8 8 5 9 2 4 -12 -6 -15 -5 -17 5 -6 23 22
55 13 193 -57 75 -37 136 -65 136 -61 0 19 -463 225 -747 331 -165 61 -534
184 -583 193 l-35 7 25 -20z"/>
<path d="M4030 6869 c25 -13 137 -67 249 -121 l204 -98 53 50 c29 27 49 50 45
50 -5 0 -20 -12 -35 -26 -25 -26 -26 -26 -26 -5 0 25 -18 27 -35 4 -9 -13 -10
-23 -3 -36 5 -10 8 -21 6 -23 -6 -5 -109 47 -126 64 -7 6 -18 12 -24 12 -22 0
-78 33 -78 47 0 8 -4 11 -10 8 -5 -3 -21 2 -35 11 -14 9 -25 13 -25 9 0 -5 -8
-1 -17 7 -10 8 -49 25 -88 38 -100 33 -105 33 -55 9z"/>
<path d="M8050 6880 c-13 -8 -12 -10 3 -10 9 0 17 5 17 10 0 12 -1 12 -20 0z"/>
<path d="M7960 6870 c0 -5 5 -10 11 -10 5 0 7 5 4 10 -3 6 -8 10 -11 10 -2 0
-4 -4 -4 -10z"/>
<path d="M4665 6831 c-22 -22 -42 -38 -45 -36 -4 2 -11 -5 -18 -16 -22 -35 3
-20 58 36 30 30 52 55 49 55 -2 0 -22 -18 -44 -39z"/>
<path d="M8043 6845 c0 -8 5 -11 10 -8 7 4 8 -1 3 -13 -5 -14 -4 -16 4 -8 6 6
8 18 4 27 -8 21 -21 22 -21 2z"/>
<path d="M7950 6840 c0 -5 5 -10 10 -10 6 0 10 5 10 10 0 6 -4 10 -10 10 -5 0
-10 -4 -10 -10z"/>
<path d="M7979 6840 c0 -8 -2 -23 -4 -32 -4 -20 3 -22 25 -8 11 7 11 10 2 10
-7 0 -11 4 -8 8 2 4 1 14 -5 22 -7 13 -9 13 -10 0z"/>
<path d="M5425 6830 c4 -6 11 -8 16 -5 14 9 11 15 -7 15 -8 0 -12 -5 -9 -10z"/>
<path d="M1196 6801 c-4 -5 3 -7 14 -4 23 6 26 13 6 13 -8 0 -17 -4 -20 -9z"/>
<path d="M4555 6780 c3 -5 8 -10 11 -10 2 0 4 5 4 10 0 6 -5 10 -11 10 -5 0
-7 -4 -4 -10z"/>
<path d="M8246 6761 c-16 -17 -28 -41 -28 -56 0 -26 92 -299 98 -292 2 2 0 18
-5 35 -6 21 -6 32 0 32 6 0 7 4 4 10 -3 5 2 22 12 37 10 15 12 24 6 20 -7 -5
-13 -4 -13 2 0 5 8 12 18 14 16 4 16 5 -1 6 -10 0 -15 6 -12 11 3 6 1 10 -5
10 -6 0 -8 5 -5 10 3 6 -1 10 -9 10 -8 0 -18 -5 -21 -10 -10 -15 -31 5 -43 40
-8 21 -7 33 3 46 7 10 11 23 8 29 -2 7 1 24 6 38 9 23 16 27 49 27 21 0 46 -6
56 -13 20 -15 32 -72 16 -82 -5 -3 -10 -13 -10 -21 0 -8 5 -12 10 -9 6 4 10 3
9 -2 -5 -27 5 -44 32 -59 25 -12 31 -13 27 -3 -3 8 -15 45 -28 83 -29 87 -56
116 -108 116 -29 0 -45 -7 -66 -29z"/>
<path d="M2929 6755 c-5 -30 -3 -41 11 -53 8 -8 9 -11 2 -7 -7 4 -11 2 -10 -3
5 -16 -62 -111 -82 -117 -11 -4 -18 -10 -15 -15 6 -9 -24 -24 -42 -21 -7 1
-13 -5 -13 -14 0 -27 -30 -64 -94 -111 -57 -43 -157 -97 -182 -99 -6 0 -18 -8
-27 -17 -10 -9 -26 -20 -38 -23 -11 -4 -18 -9 -16 -12 8 -7 150 61 204 98 100
69 177 136 243 216 37 45 69 86 71 92 3 7 58 -6 144 -34 76 -24 141 -42 143
-40 2 2 -7 6 -19 10 -13 4 -29 13 -36 19 -30 26 -40 31 -65 30 -16 -1 -28 3
-28 7 0 5 -8 9 -17 9 -16 1 -16 2 1 15 27 20 11 19 -19 -1 -15 -10 -32 -13
-42 -9 -10 5 -22 7 -26 6 -5 -1 -11 8 -14 19 -3 11 -10 20 -15 20 -5 0 -7 4
-4 8 2 4 1 14 -5 22 -5 8 -9 11 -10 5z"/>
<path d="M5099 6723 c-13 -16 -12 -17 4 -4 9 7 17 15 17 17 0 8 -8 3 -21 -13z"/>
<path d="M1340 6716 c0 -2 8 -10 18 -17 15 -13 16 -12 3 4 -13 16 -21 21 -21
13z"/>
<path d="M8056 6695 c-9 -26 -7 -32 5 -12 6 10 9 21 6 23 -2 3 -7 -2 -11 -11z"/>
<path d="M2680 6643 c-25 -27 -38 -42 -30 -35 19 16 35 15 21 -2 -9 -10 -8
-15 2 -19 9 -3 14 5 15 26 2 17 12 42 24 54 12 13 19 23 17 23 -3 0 -25 -21
-49 -47z"/>
<path d="M5036 6672 c-3 -5 1 -9 9 -9 8 0 12 4 9 9 -3 4 -7 8 -9 8 -2 0 -6 -4
-9 -8z"/>
<path d="M2730 6658 c0 -4 4 -8 9 -8 6 0 12 4 15 8 3 5 -1 9 -9 9 -8 0 -15 -4
-15 -9z"/>
<path d="M8030 6636 c-15 -39 -12 -46 6 -13 9 16 13 31 10 34 -3 3 -10 -6 -16
-21z"/>
<path d="M7290 6630 c0 -5 5 -10 10 -10 6 0 10 -7 10 -15 0 -16 16 -20 24 -6
3 5 -5 16 -19 25 -14 9 -25 12 -25 6z"/>
<path d="M8365 6631 c-3 -5 -2 -12 3 -15 5 -3 9 1 9 9 0 17 -3 19 -12 6z"/>
<path d="M2730 6620 c-13 -8 -12 -10 3 -10 9 0 17 5 17 10 0 12 -1 12 -20 0z"/>
<path d="M1386 6591 c-3 -5 3 -11 15 -14 16 -4 18 -3 8 9 -13 16 -16 17 -23 5z"/>
<path d="M2705 6580 c3 -5 8 -10 11 -10 2 0 4 5 4 10 0 6 -5 10 -11 10 -5 0
-7 -4 -4 -10z"/>
<path d="M3250 6581 c8 -4 78 -31 156 -60 78 -28 210 -80 295 -116 84 -35 154
-63 156 -61 2 2 -10 9 -27 16 -16 7 -30 18 -30 24 0 6 -11 24 -25 40 -20 24
-27 27 -39 17 -8 -7 -19 -10 -24 -7 -5 3 -26 8 -46 10 -48 6 -178 55 -192 72
-6 8 -16 14 -23 14 -15 0 -14 17 2 24 6 3 2 3 -10 0 -17 -4 -23 -1 -23 10 0
13 -12 15 -62 13 -35 -1 -76 1 -93 6 -19 4 -24 4 -15 -2z"/>
<path d="M8006 6575 c-9 -26 -7 -32 5 -12 6 10 9 21 6 23 -2 3 -7 -2 -11 -11z"/>
<path d="M7986 6524 c-5 -12 -13 -14 -32 -10 -22 6 -25 4 -20 -10 6 -16 6 -16
-42 3 -7 3 -12 2 -10 -3 1 -5 -3 -19 -10 -31 -11 -19 -9 -24 8 -33 11 -6 20
-17 20 -25 0 -8 6 -12 14 -9 11 4 12 -3 6 -38 -5 -24 -7 -44 -6 -46 2 -1 22
46 45 104 23 59 40 109 38 111 -3 2 -7 -4 -11 -13z m-78 -69 c-3 -3 -9 2 -12
12 -6 14 -5 15 5 6 7 -7 10 -15 7 -18z"/>
<path d="M8473 6496 c3 -8 11 -32 16 -53 6 -21 16 -45 22 -53 10 -13 10 -13 6
0 -18 63 -39 120 -44 120 -3 0 -3 -6 0 -14z"/>
<path d="M7300 6469 c0 -5 5 -7 10 -4 6 3 10 8 10 11 0 2 -4 4 -10 4 -5 0 -10
-5 -10 -11z"/>
<path d="M3710 6450 c0 -5 5 -10 11 -10 5 0 7 5 4 10 -3 6 -8 10 -11 10 -2 0
-4 -4 -4 -10z"/>
<path d="M5064 6434 c-18 -14 -18 -15 4 -4 12 6 22 13 22 15 0 8 -5 6 -26 -11z"/>
<path d="M5214 6417 c29 -25 38 -39 34 -54 -5 -17 -2 -21 14 -18 14 3 18 0 15
-10 -3 -7 1 -16 9 -19 10 -4 13 -2 8 7 -4 6 1 4 12 -5 11 -9 34 -16 51 -16 18
1 39 -5 48 -12 8 -7 15 -10 15 -7 0 7 -61 50 -170 120 -61 39 -68 42 -36 14z"/>
<path d="M2420 6431 c0 -6 4 -12 8 -15 5 -3 9 1 9 9 0 8 -4 15 -9 15 -4 0 -8
-4 -8 -9z"/>
<path d="M8523 6324 c4 -33 2 -56 -6 -64 -9 -9 -9 -11 0 -6 12 6 63 -47 63
-66 0 -6 3 -9 6 -6 5 6 -52 178 -63 188 -3 3 -3 -18 0 -46z"/>
<path d="M4033 6343 c-21 -8 -15 -19 13 -21 22 -2 25 0 14 13 -7 8 -13 15 -14
14 0 0 -7 -3 -13 -6z"/>
<path d="M5210 6340 c0 -5 5 -10 11 -10 5 0 7 5 4 10 -3 6 -8 10 -11 10 -2 0
-4 -4 -4 -10z"/>
<path d="M7216 6324 c-3 -9 -1 -23 4 -32 9 -14 10 -13 5 6 -4 13 -2 22 4 22 6
0 11 5 11 10 0 16 -17 12 -24 -6z"/>
<path d="M3902 6319 c16 -9 5 -25 -85 -137 -233 -287 -476 -640 -652 -947
-112 -194 -299 -554 -293 -561 3 -2 13 14 23 36 24 54 40 65 94 65 37 1 47 5
49 19 3 14 0 17 -12 13 -8 -3 -18 -2 -21 3 -4 6 1 10 10 10 18 0 45 23 45 39
0 5 -5 13 -12 17 -6 4 -8 3 -5 -3 8 -12 -22 -27 -32 -17 -3 4 0 9 7 11 10 4
10 8 0 21 -10 12 -10 14 0 8 11 -7 18 20 13 48 -4 18 10 57 18 52 4 -3 8 0 8
7 0 25 69 149 105 189 31 35 38 39 35 21 -2 -13 -6 -26 -10 -29 -4 -4 -7 -12
-7 -18 0 -6 5 -5 12 2 7 7 20 12 29 12 10 0 20 8 23 18 4 14 5 14 4 -3 -1 -35
2 -42 16 -42 11 0 12 5 5 18 -6 11 -5 20 1 24 5 3 10 1 10 -4 0 -20 35 -11 52
13 16 23 16 25 -2 46 -21 25 -26 40 -11 40 5 0 11 11 13 25 4 21 1 25 -18 25
-13 0 -24 5 -24 10 0 6 7 10 16 10 8 0 12 5 9 10 -3 6 1 10 9 10 20 0 21 19 1
26 -13 5 -13 9 -3 22 10 12 10 14 1 8 -8 -4 -13 -1 -13 8 0 9 5 16 10 16 6 0
10 7 10 16 0 19 86 154 109 171 9 6 17 8 19 3 2 -5 14 -5 28 1 34 12 37 12 30
-7 -3 -8 -2 -12 4 -9 6 3 10 1 10 -6 0 -7 3 -9 7 -6 3 4 17 0 31 -9 22 -14 25
-14 38 3 14 17 14 16 4 -5 -8 -17 -17 -21 -33 -17 -15 4 -18 3 -9 -3 17 -11
16 -14 -4 -55 -22 -44 -7 -26 60 71 46 66 54 83 42 88 -19 7 -11 24 10 24 9 0
12 -5 8 -12 -4 -7 -3 -8 4 -4 18 11 14 26 -7 26 -11 0 -23 5 -27 12 -5 8 -2 9
10 5 10 -4 15 -3 11 3 -3 6 -12 10 -20 10 -8 0 -16 4 -19 9 -3 5 0 9 7 8 6 0
21 1 32 3 15 2 12 4 -10 9 -24 5 -29 11 -27 30 2 18 -1 22 -15 17 -10 -4 -14
-4 -10 0 4 4 -1 12 -10 19 -14 11 -11 18 27 71 58 80 90 104 90 69 0 -8 6 -15
13 -15 6 -1 32 -19 57 -40 34 -30 40 -39 23 -36 -16 4 -20 1 -16 -10 3 -8 10
-13 16 -11 6 2 46 50 90 108 43 57 64 88 46 69 -18 -19 -37 -34 -41 -32 -4 1
-8 -4 -8 -11 0 -8 -7 -14 -15 -14 -10 0 -14 6 -10 15 4 10 0 13 -15 9 -16 -4
-18 -2 -11 11 11 20 -29 58 -41 39 -5 -7 -8 -3 -8 11 0 12 -5 22 -10 22 -17 0
7 39 69 110 31 36 60 68 65 72 11 8 -11 38 -28 38 -6 0 -3 -5 6 -11z m-256
-654 c-9 -9 -16 -13 -16 -8 0 12 22 34 28 28 2 -2 -3 -11 -12 -20z m-396 -435
c0 -5 -7 -7 -15 -4 -8 4 -15 8 -15 10 0 2 7 4 15 4 8 0 15 -4 15 -10z"/>
<path d="M3990 6315 c-7 -8 -16 -12 -21 -9 -5 3 -9 -7 -8 -23 0 -16 3 -21 6
-13 3 8 15 25 26 38 11 12 18 22 15 22 -3 0 -11 -7 -18 -15z"/>
<path d="M5205 6310 c3 -5 8 -10 11 -10 2 0 4 5 4 10 0 6 -5 10 -11 10 -5 0
-7 -4 -4 -10z"/>
<path d="M8351 6305 c1 -19 18 -51 18 -35 0 8 -4 22 -9 30 -5 8 -9 11 -9 5z"/>
<path d="M4000 6291 c0 -5 11 -8 25 -8 13 0 22 3 19 8 -3 5 -14 9 -25 9 -10 0
-19 -4 -19 -9z"/>
<path d="M7240 6291 c0 -10 19 -25 25 -20 1 2 -3 10 -11 17 -8 7 -14 8 -14 3z"/>
<path d="M4130 6275 c-7 -9 -19 -14 -27 -11 -8 3 -11 2 -8 -3 3 -5 1 -12 -5
-16 -5 -3 -10 3 -10 14 0 12 -4 21 -10 21 -5 0 -10 -5 -10 -11 0 -6 -9 -9 -19
-6 -14 3 -20 0 -19 -12 0 -9 -3 -27 -6 -41 -5 -22 -5 -22 5 3 6 15 15 27 20
27 6 0 7 -4 4 -10 -3 -5 2 -10 12 -11 14 0 14 -2 -4 -9 -13 -5 -23 -12 -23
-15 0 -4 5 -3 10 0 15 9 12 -8 -6 -35 -22 -33 -2 -12 65 68 29 34 51 62 48 62
-2 0 -10 -7 -17 -15z"/>
<path d="M5468 6245 c39 -34 42 -40 36 -73 -6 -28 -4 -34 8 -30 9 4 14 0 14
-13 -1 -10 2 -18 7 -19 4 0 7 3 6 6 -1 15 47 31 66 21 42 -20 125 -90 131
-110 4 -12 14 -27 23 -34 9 -6 12 -15 7 -20 -5 -4 -11 -2 -13 5 -3 6 -12 12
-21 12 -38 0 29 -30 70 -31 24 -1 52 -9 63 -18 18 -15 19 -15 6 1 -14 18 -298
237 -391 302 l-55 38 43 -37z"/>
<path d="M3980 6260 c0 -5 5 -10 10 -10 6 0 10 5 10 10 0 6 -4 10 -10 10 -5 0
-10 -4 -10 -10z"/>
<path d="M7745 6250 c3 -5 8 -10 11 -10 2 0 4 5 4 10 0 6 -5 10 -11 10 -5 0
-7 -4 -4 -10z"/>
<path d="M2310 6234 l-35 -14 35 6 c19 4 44 10 55 15 l20 8 -20 0 c-11 0 -36
-7 -55 -15z"/>
<path d="M2238 6213 c6 -2 18 -2 25 0 6 3 1 5 -13 5 -14 0 -19 -2 -12 -5z"/>
<path d="M7781 6204 c0 -11 3 -14 6 -6 3 7 2 16 -1 19 -3 4 -6 -2 -5 -13z"/>
<path d="M8380 6211 c0 -6 4 -13 10 -16 6 -3 7 1 4 9 -7 18 -14 21 -14 7z"/>
<path d="M4534 6178 c-4 -6 -3 -8 4 -4 6 3 27 -1 46 -11 28 -13 35 -21 32 -39
-5 -26 32 -50 61 -40 12 4 9 -1 -7 -14 -27 -21 -12 -28 19 -9 10 7 29 9 43 6
33 -9 138 -87 138 -103 0 -8 6 -11 15 -8 10 4 15 0 15 -12 0 -14 3 -15 8 -6 7
9 13 8 27 -8 10 -11 42 -31 71 -44 29 -14 75 -45 101 -69 26 -25 71 -57 98
-72 68 -38 143 -96 150 -117 4 -10 13 -18 20 -18 8 0 17 -4 20 -10 4 -6 -1 -7
-12 -4 -15 5 -15 4 -3 -4 8 -6 18 -9 22 -6 19 12 174 -110 228 -180 13 -18 13
-19 0 -11 -13 8 -13 7 -1 -9 10 -11 16 -13 21 -6 5 8 12 7 22 -4 9 -8 18 -13
21 -9 9 8 140 -125 133 -136 -3 -5 2 -7 13 -4 34 9 36 -19 2 -49 -17 -15 -26
-28 -20 -28 6 0 8 -9 5 -20 -17 -60 -13 -58 21 10 l38 75 -70 63 c-152 138
-538 439 -760 593 -91 64 -376 248 -448 291 -53 31 -63 33 -73 16z"/>
<path d="M8230 6134 c-69 -24 -114 -42 -100 -39 14 3 37 8 53 11 15 4 27 2 27
-3 0 -19 58 -13 86 9 15 13 25 17 20 10 -4 -6 -5 -12 -1 -12 3 0 10 11 15 25
5 14 20 30 32 35 13 5 16 9 8 9 -8 -1 -71 -21 -140 -45z"/>
<path d="M5310 6136 c0 -2 57 -46 128 -97 147 -108 420 -326 572 -457 l105
-90 25 22 c122 112 368 219 565 246 l70 9 -80 -5 c-44 -3 -92 -7 -107 -8 -15
-2 -26 2 -25 8 1 6 -7 10 -18 9 -29 -3 -72 16 -72 33 0 7 5 14 11 15 6 0 2 4
-9 9 -30 13 -35 12 -35 -7 0 -9 -3 -14 -6 -10 -4 3 -3 14 0 24 4 10 6 19 4 19
-2 1 6 12 17 24 l19 21 -29 -7 c-56 -14 -162 -61 -245 -108 l-82 -48 -37 34
c-34 32 -131 113 -176 147 -11 8 -1 -4 23 -26 41 -40 55 -73 30 -73 -8 0 -13
-15 -14 -37 0 -20 -6 -39 -12 -41 -7 -2 -9 -8 -6 -14 4 -6 9 -5 15 3 6 10 13
10 33 1 22 -10 29 -8 56 15 l31 25 39 -27 c36 -25 52 -65 25 -65 -5 0 -4 -4 4
-9 10 -6 10 -13 2 -29 -9 -17 -8 -20 7 -17 9 1 22 -2 28 -6 8 -6 13 -3 17 10
3 11 0 23 -7 26 -6 3 -1 3 12 1 12 -2 22 -3 22 -2 0 8 -37 44 -50 49 -9 3 -10
6 -2 6 6 1 12 6 12 12 0 6 -7 8 -17 5 -15 -6 -15 -4 2 13 39 44 155 97 155 72
0 -6 5 -11 11 -11 6 0 17 -6 25 -14 10 -11 22 -12 44 -6 17 5 30 6 30 2 0 -4
5 0 10 8 8 12 10 9 10 -13 0 -16 4 -26 10 -22 6 3 10 0 10 -8 0 -10 -8 -13
-25 -9 -14 2 -25 11 -25 18 0 8 -4 14 -9 14 -13 0 -8 -34 8 -46 11 -9 10 -13
-4 -27 -28 -28 -164 -90 -151 -69 3 5 -4 13 -15 20 -11 7 -19 8 -19 2 0 -5 6
-10 13 -10 6 0 -2 -9 -19 -19 -18 -11 -35 -25 -39 -32 -5 -8 -4 -10 3 -5 7 4
12 1 12 -6 0 -7 -16 -23 -34 -36 -35 -24 -53 -22 -88 10 -7 7 -31 25 -54 41
-44 30 -88 82 -80 96 3 4 -5 17 -19 29 -14 12 -25 16 -27 10 -5 -13 -103 47
-131 80 -12 13 -16 26 -11 34 5 7 9 20 11 28 1 12 -1 12 -11 -2 -13 -18 -40
-9 -42 14 -3 32 -5 38 -14 38 -5 0 -10 -8 -11 -17 0 -11 -3 -13 -6 -5 -2 6 -9
10 -14 6 -5 -3 -9 0 -9 5 0 6 -6 11 -12 11 -21 0 -99 56 -91 65 5 4 3 5 -4 1
-14 -8 -45 33 -36 48 4 6 -2 4 -12 -4 -17 -14 -18 -13 -12 4 6 15 5 17 -7 7
-11 -9 -16 -6 -24 19 -6 17 -18 30 -27 30 -9 0 -13 5 -9 11 5 8 1 8 -14 0 -15
-8 -23 -7 -32 4 -7 8 -19 15 -26 15 -8 0 -14 5 -14 10 0 6 -4 10 -10 10 -5 0
-10 -2 -10 -4z"/>
<path d="M4617 6069 c4 -13 8 -18 11 -10 2 7 -1 18 -6 23 -8 8 -9 4 -5 -13z"/>
<path d="M8007 6061 c-100 -36 -117 -52 -117 -108 0 -56 33 -93 83 -93 30 0
232 62 245 75 3 3 -10 3 -29 1 -19 -2 -40 1 -47 7 -10 8 -19 7 -33 -1 -16 -11
-18 -9 -16 10 1 17 -4 24 -23 28 -15 3 -26 13 -28 25 -2 11 -8 22 -12 25 -14
9 3 27 40 43 58 25 21 18 -63 -12z m71 -108 c-13 -16 -58 -17 -58 -2 0 6 9 8
21 4 12 -4 19 -3 16 2 -3 5 3 9 13 9 14 0 16 -3 8 -13z m-28 -33 c0 -5 -4 -10
-10 -10 -5 0 -10 5 -10 10 0 6 5 10 10 10 6 0 10 -4 10 -10z"/>
<path d="M8564 6068 l-19 -23 23 19 c21 18 27 26 19 26 -2 0 -12 -10 -23 -22z"/>
<path d="M4546 6071 c-7 -11 3 -41 14 -41 5 0 12 5 16 11 4 8 10 7 18 -1 8 -9
8 -14 -1 -17 -7 -3 -13 -11 -13 -19 0 -9 -4 -13 -9 -10 -5 3 -11 -1 -15 -9 -3
-8 -1 -15 4 -15 6 0 10 -5 10 -11 0 -5 -5 -7 -12 -3 -6 4 -9 3 -5 -2 5 -9 -55
-84 -68 -84 -3 0 -4 4 -1 9 3 5 -9 8 -26 7 -17 -1 -34 -8 -36 -15 -3 -9 0 -11
8 -6 9 5 11 4 6 -4 -4 -6 -12 -9 -17 -6 -5 4 -9 1 -9 -4 0 -6 -9 -11 -20 -11
-11 0 -20 -5 -20 -11 0 -5 -4 -8 -9 -5 -5 4 -7 -3 -4 -15 3 -11 11 -18 19 -15
9 3 11 0 7 -11 -4 -11 -2 -14 5 -9 23 14 -8 -45 -55 -105 -48 -61 -53 -65 -68
-50 -6 6 -17 4 -29 -5 -11 -8 -16 -14 -12 -14 4 0 -5 -16 -20 -35 -28 -37 -44
-44 -44 -20 0 8 -5 15 -10 15 -15 0 -7 -22 15 -43 11 -10 14 -16 8 -12 -8 3
-13 0 -13 -9 0 -8 5 -16 11 -18 5 -2 -13 -38 -42 -81 -54 -80 -54 -80 -114
-62 -6 1 -12 22 -14 46 -2 45 -17 73 -32 63 -5 -3 -9 1 -9 8 0 12 -60 -65 -82
-107 -10 -18 -10 -19 5 -6 15 12 17 11 18 -5 1 -11 1 -23 0 -28 -2 -9 37 -46
49 -46 3 0 12 6 19 13 9 8 12 8 7 0 -3 -6 1 -19 11 -28 16 -16 15 -21 -11 -71
-15 -29 -42 -68 -59 -86 -18 -18 -32 -36 -32 -40 0 -5 -4 -9 -10 -10 -5 -2
-12 11 -15 27 -4 21 -11 29 -23 27 -9 -2 -17 1 -17 6 0 5 -10 8 -22 6 -13 -1
-27 -3 -32 -3 -4 -1 -6 -14 -4 -30 3 -23 1 -29 -12 -28 -19 1 -21 38 -2 50 7
5 10 12 8 16 -3 4 5 7 17 6 27 -2 47 4 47 15 0 5 -9 6 -20 3 -11 -3 -26 0 -34
6 -11 9 -20 2 -46 -40 -21 -35 -26 -50 -16 -46 10 4 16 1 17 -8 4 -44 8 -48
60 -47 45 1 49 -7 6 -10 -28 -2 -35 -12 -17 -23 6 -3 10 -1 10 4 0 6 9 11 19
11 21 0 39 -38 24 -49 -13 -10 -66 -112 -60 -118 3 -2 13 10 22 27 28 55 193
318 278 445 142 212 496 665 520 665 5 0 21 -8 35 -18 47 -33 58 -36 35 -10
-13 13 -23 29 -23 35 0 6 -6 14 -12 16 -10 4 -10 6 0 6 7 1 10 6 6 12 -3 6 0
15 7 20 11 7 10 9 -4 9 -10 0 -16 4 -13 9 3 5 -3 20 -14 32 -11 13 -19 20 -18
14 3 -10 -4 -15 -23 -15 -5 0 -7 5 -4 10 3 6 4 10 1 10 -3 0 -7 -4 -10 -9z
m-566 -647 c0 -8 -6 -11 -15 -8 -8 4 -15 9 -15 13 0 4 7 8 15 8 8 0 15 -6 15
-13z m-154 -364 c8 0 14 -4 14 -10 0 -5 -4 -10 -8 -10 -14 0 -32 23 -31 40 1
11 2 11 6 -2 2 -10 11 -18 19 -18z"/>
<path d="M8395 6060 c-3 -5 -3 -10 2 -11 4 -1 -3 -4 -17 -8 -14 -4 -24 -13
-23 -19 2 -6 -4 -9 -12 -6 -7 3 -22 1 -32 -6 -16 -10 -15 -10 5 -5 21 6 23 5
13 -13 -6 -11 -25 -23 -42 -27 -17 -4 -28 -9 -25 -12 4 -4 244 74 255 83 2 2
-15 2 -39 -1 -42 -4 -88 14 -73 28 3 4 4 7 0 7 -3 0 -9 -4 -12 -10z"/>
<path d="M4367 5992 c-15 -16 -24 -31 -20 -35 3 -4 2 -7 -4 -7 -6 0 -30 -24
-54 -52 -29 -36 -34 -45 -14 -28 22 19 27 21 22 7 -5 -14 -3 -16 12 -8 10 6
22 7 26 3 5 -4 5 -1 1 6 -4 7 -12 10 -17 7 -5 -4 -9 3 -9 13 0 22 23 46 33 35
4 -3 7 -1 7 6 0 7 5 9 10 6 8 -5 7 -11 -1 -21 -6 -7 -15 -11 -20 -8 -5 3 -9 0
-9 -5 0 -6 2 -11 5 -11 9 0 50 25 57 35 11 15 9 37 -2 30 -6 -4 -8 -11 -5 -16
4 -5 1 -9 -5 -9 -22 0 -22 32 0 56 13 13 21 24 19 24 -3 0 -17 -13 -32 -28z"/>
<path d="M5710 5950 c-8 -5 -12 -12 -9 -15 4 -3 12 1 19 10 14 17 11 19 -10 5z"/>
<path d="M7736 5895 c-9 -26 -7 -32 5 -12 6 10 9 21 6 23 -2 3 -7 -2 -11 -11z"/>
<path d="M4680 5897 c0 -3 53 -40 118 -82 215 -142 559 -395 703 -519 89 -77
138 -116 144 -116 3 0 -15 19 -42 41 -47 42 -76 83 -65 93 3 3 0 6 -7 6 -6 0
-11 6 -9 13 2 7 -1 12 -7 12 -5 0 -9 -3 -8 -7 2 -5 -2 -8 -7 -8 -6 0 -10 5
-10 10 0 6 -9 10 -20 10 -47 0 -145 105 -145 154 0 6 -20 11 -45 11 -38 0 -55
8 -112 50 -37 28 -68 57 -68 65 -1 21 -30 59 -30 39 -1 -10 -3 -9 -11 4 -5 9
-15 17 -21 17 -6 0 -19 10 -29 22 -11 11 -19 16 -19 10 0 -7 -4 -12 -8 -12
-15 0 -132 79 -130 87 5 20 -15 53 -30 51 -10 -2 -16 3 -14 11 3 12 0 12 -11
2 -12 -9 -18 -9 -29 2 -7 7 -18 12 -25 10 -6 -2 -23 3 -37 13 -14 9 -26 14
-26 11z"/>
<path d="M3782 5849 c-19 -30 -11 -32 11 -3 10 13 14 24 10 24 -5 0 -14 -9
-21 -21z"/>
<path d="M6818 5829 c-26 -14 -11 -42 18 -35 13 4 24 4 24 1 0 -2 -14 -8 -32
-13 -26 -6 -9 -10 89 -20 67 -7 135 -17 152 -22 29 -8 30 -7 45 38 19 54 14
70 -5 18 -7 -20 -17 -37 -21 -37 -4 -1 -14 -2 -20 -3 -7 -2 -27 3 -45 10 -17
7 -34 10 -37 7 -3 -3 -16 -3 -30 1 -17 4 -23 11 -20 20 3 8 1 22 -4 31 -8 16
-10 16 -15 1 -4 -9 -2 -16 3 -16 5 0 7 -7 4 -15 -6 -14 -37 -16 -50 -2 -4 4
-1 13 5 21 9 11 9 16 0 22 -7 4 -15 2 -17 -5 -3 -8 -8 -9 -16 -2 -7 6 -17 6
-28 0z"/>
<path d="M3725 5780 c4 -6 11 -8 16 -5 14 9 11 15 -7 15 -8 0 -12 -5 -9 -10z"/>
<path d="M4124 5693 c-15 -20 -23 -33 -16 -29 13 8 56 66 49 66 -3 0 -17 -17
-33 -37z"/>
<path d="M5958 5717 c7 -8 8 -18 4 -22 -4 -5 -1 -5 6 -1 17 10 15 23 -4 30
-13 5 -14 4 -6 -7z"/>
<path d="M5075 5700 c-3 -5 -1 -10 4 -10 6 0 11 5 11 10 0 6 -2 10 -4 10 -3 0
-8 -4 -11 -10z"/>
<path d="M7482 5658 c-7 -7 -12 -20 -12 -30 0 -17 1 -17 18 0 10 9 14 20 9 23
-5 4 -3 9 4 12 8 3 9 6 4 6 -6 1 -16 -4 -23 -11z"/>
<path d="M7525 5649 c-4 -6 -5 -12 -2 -15 2 -3 7 2 10 11 7 17 1 20 -8 4z"/>
<path d="M4077 5632 c-9 -10 -17 -25 -17 -33 0 -9 3 -10 8 -3 4 6 15 15 24 20
10 6 14 14 9 22 -6 9 -11 8 -24 -6z"/>
<path d="M4163 5633 c23 -26 22 -37 -3 -30 -11 3 -18 1 -15 -4 3 -4 18 -7 34
-6 34 2 31 18 -7 43 -27 17 -27 17 -9 -3z"/>
<path d="M7682 5625 c15 -16 29 -27 31 -24 3 2 -10 15 -27 28 l-31 24 27 -28z"/>
<path d="M4086 5595 c-3 -8 -1 -15 4 -15 6 0 10 5 10 11 0 5 5 7 12 3 7 -4 8
-3 4 4 -10 16 -23 15 -30 -3z"/>
<path d="M6135 5600 c-3 -6 1 -7 9 -4 18 7 21 14 7 14 -6 0 -13 -4 -16 -10z"/>
<path d="M7730 5584 c0 -5 16 -25 35 -44 19 -18 32 -36 30 -40 -2 -3 0 -12 5
-20 5 -8 3 -19 -6 -27 -10 -10 -11 -20 -4 -32 6 -12 5 -22 -3 -31 -10 -12 -9
-12 5 -1 10 7 15 18 11 24 -4 6 -1 7 6 2 7 -4 11 -16 8 -26 -4 -14 0 -19 16
-19 18 0 20 2 7 11 -13 9 -13 10 0 6 8 -2 14 -13 13 -24 -1 -12 6 -24 20 -31
15 -7 17 -11 6 -11 -9 -1 -15 -9 -14 -21 2 -24 15 -40 15 -18 0 9 7 18 15 22
8 3 15 0 15 -6 0 -6 3 -8 6 -5 4 3 16 2 26 -4 18 -10 18 -6 -6 38 -44 79 -206
283 -206 257z"/>
<path d="M3528 5483 c-17 -20 -41 -63 -35 -63 3 0 16 18 31 40 28 42 29 52 4
23z"/>
<path d="M7746 5425 c4 -8 8 -15 10 -15 2 0 4 7 4 15 0 8 -4 15 -10 15 -5 0
-7 -7 -4 -15z"/>
<path d="M3384 5402 c4 -7 1 -15 -8 -18 -24 -9 -20 -44 4 -44 11 0 20 5 20 10
0 6 -5 10 -11 10 -8 0 -7 5 1 15 11 13 11 18 0 28 -10 9 -11 9 -6 -1z"/>
<path d="M7814 5348 c3 -15 26 -23 26 -8 0 6 -4 9 -9 6 -5 -4 -12 -1 -14 4 -3
6 -4 5 -3 -2z"/>
<path d="M3385 5310 c-3 -6 1 -7 9 -4 18 7 21 14 7 14 -6 0 -13 -4 -16 -10z"/>
<path d="M3399 5278 c-7 -13 -19 -34 -27 -48 -14 -24 -13 -24 3 -5 20 24 48
75 41 75 -3 0 -11 -10 -17 -22z"/>
<path d="M7984 5224 c13 -28 27 -70 31 -95 4 -24 11 -46 16 -50 14 -8 28 -66
23 -95 -3 -14 -1 -23 5 -20 11 7 20 -36 13 -69 -6 -31 -22 -33 -23 -2 -1 16
-2 18 -6 5 -2 -10 -12 -18 -21 -17 -11 0 -12 2 -4 6 6 2 12 9 12 15 0 6 -7 7
-16 4 -12 -4 -15 -2 -10 9 3 8 1 15 -4 15 -16 0 -22 -21 -10 -35 9 -11 9 -15
1 -15 -6 0 -11 -9 -11 -21 0 -14 -5 -19 -14 -16 -7 3 -19 0 -25 -6 -8 -8 -11
-8 -11 1 0 7 7 15 15 18 8 4 15 11 15 16 0 6 -7 8 -14 5 -14 -6 -29 19 -25 39
1 5 1 18 0 29 -1 15 -3 17 -10 7 -6 -9 -10 -3 -14 20 -6 37 -36 112 -42 106
-2 -2 7 -40 21 -83 48 -153 64 -322 43 -471 -35 -252 -154 -482 -344 -662
l-76 -73 59 -112 c115 -223 294 -557 297 -557 2 0 -10 29 -26 64 -17 36 -31
83 -33 105 -1 22 -10 49 -20 60 -17 19 -17 19 4 14 17 -4 21 -2 18 12 -2 10 3
20 11 23 10 3 12 -1 8 -17 -3 -11 -3 -21 0 -21 11 0 29 26 26 37 -2 6 1 14 6
18 6 3 11 1 11 -6 0 -7 8 -9 21 -6 17 5 18 3 7 -11 -10 -12 -10 -14 -1 -8 8 4
23 -4 40 -21 18 -19 -3 29 -64 147 -50 96 -99 189 -109 206 l-18 31 61 69 c33
38 75 92 93 119 l33 50 -31 -32 c-33 -36 -48 -42 -38 -17 3 8 2 12 -3 9 -5 -3
-12 -1 -16 5 -11 18 -25 -1 -19 -26 4 -14 1 -31 -7 -41 -9 -11 -10 -14 -2 -9
8 4 6 -5 -4 -22 -17 -29 -53 -37 -61 -14 -2 7 -13 12 -25 12 -12 0 -17 -4 -12
-8 6 -4 11 -18 13 -31 2 -19 -1 -21 -11 -12 -10 8 -14 7 -14 -4 0 -8 7 -17 14
-19 11 -5 9 -13 -9 -38 -13 -18 -26 -34 -30 -36 -5 -2 -8 -13 -8 -24 0 -11 -5
-18 -12 -15 -7 2 -12 11 -11 18 2 10 -1 9 -9 -2 -10 -14 -14 -14 -38 -2 -26
12 -64 72 -65 100 0 13 61 82 75 84 20 3 25 5 39 13 10 6 16 5 19 -2 2 -7 9
-12 15 -12 6 0 4 7 -5 17 -14 13 -20 14 -32 3 -10 -8 -16 -9 -16 -2 0 6 9 16
20 22 11 6 20 18 20 27 0 13 2 14 17 2 11 -9 14 -10 9 -2 -9 17 42 85 58 76 6
-3 8 -3 4 2 -4 4 0 14 10 22 9 8 11 11 4 8 -11 -6 -11 -3 0 16 7 13 18 27 23
31 6 4 6 8 2 8 -11 0 25 60 36 60 4 0 5 5 2 10 -10 16 23 12 50 -6 15 -10 25
-12 25 -5 0 6 -5 11 -12 11 -6 0 -9 3 -6 6 4 3 16 0 28 -6 17 -9 24 -9 30 0 5
8 9 8 13 -3 3 -9 -1 -18 -9 -21 -8 -3 -14 -10 -14 -16 0 -6 4 -9 8 -6 7 4 11
-12 13 -56 1 -31 9 -20 44 55 54 117 99 275 55 192 -7 -14 -16 -25 -20 -25 -3
0 -5 -13 -4 -30 1 -16 -4 -34 -12 -41 -8 -6 -14 -8 -14 -5 0 4 -6 1 -14 -6 -8
-7 -12 -16 -10 -19 2 -3 -9 -6 -25 -5 -17 1 -27 6 -24 12 2 7 0 15 -6 19 -6 3
-14 -1 -17 -9 -8 -20 -20 -20 -28 0 -3 8 1 22 9 30 17 17 20 54 5 54 -5 0 -10
5 -10 11 0 5 4 8 10 4 5 -3 8 7 5 24 -2 17 2 35 10 41 8 6 11 18 9 25 -3 7 4
23 15 34 12 12 17 21 11 21 -15 0 -7 43 10 58 13 12 13 13 -1 9 -14 -5 -15 0
-9 26 4 18 11 39 15 48 3 10 2 20 -4 24 -15 8 -14 56 0 53 6 -2 14 3 17 11 3
8 0 11 -7 7 -7 -5 -11 6 -11 33 0 22 4 43 10 46 5 3 7 0 4 -8 -3 -8 2 -17 12
-21 12 -4 15 -2 10 9 -3 8 -2 15 3 15 13 0 28 64 21 91 -5 19 -4 26 6 26 9 0
12 -7 8 -19 -4 -14 0 -18 18 -18 13 0 30 6 37 13 11 10 13 9 8 -6 -4 -10 -3
-15 2 -12 5 3 12 -3 15 -12 3 -10 3 6 0 35 -11 115 -87 354 -130 408 -8 10 -4
-4 10 -32z m-149 -1284 c3 -5 1 -10 -4 -10 -6 0 -11 5 -11 10 0 6 2 10 4 10 3
0 8 -4 11 -10z m-43 -314 c25 -48 32 -120 11 -112 -7 3 -13 -1 -13 -9 0 -8 -5
-15 -11 -15 -5 0 -7 -5 -3 -12 5 -8 2 -9 -9 -5 -10 3 -17 3 -17 -1 1 -12 30
-47 30 -35 0 6 7 14 16 17 11 4 14 1 12 -12 -4 -21 -27 -23 -50 -4 -11 9 -18
10 -23 3 -13 -22 -34 -10 -59 33 -14 24 -29 62 -35 85 -8 37 -7 41 11 41 10 0
17 4 14 8 -10 17 70 73 92 64 7 -2 22 -23 34 -46z m35 -157 l2 -24 -8 25 c-5
14 -9 19 -10 12 -1 -7 -6 -10 -11 -7 -13 8 -2 27 13 22 7 -2 13 -14 14 -28z
m18 -38 c-8 -14 -25 -14 -25 0 0 5 5 7 10 4 6 -3 10 -1 10 6 0 7 3 10 6 6 3
-3 3 -10 -1 -16z"/>
<path d="M2633 5131 c-164 -54 -170 -57 -117 -57 34 1 58 -4 63 -12 6 -10 10
-10 21 3 7 8 18 15 26 15 7 0 17 8 23 17 5 10 13 15 17 11 4 -4 13 0 21 10 8
9 12 12 9 5 -4 -7 1 -9 15 -6 15 4 17 8 8 14 -10 6 -7 10 11 17 14 5 29 8 33
5 4 -3 14 1 22 7 20 16 75 24 75 10 0 -6 4 -8 10 -5 19 11 49 -15 56 -49 10
-55 -1 -73 -46 -78 -22 -2 -41 0 -43 5 -1 5 -13 -1 -26 -12 -28 -24 -37 -26
-44 -8 -4 10 -6 10 -6 0 -1 -7 -8 -13 -17 -13 -8 0 -13 -3 -10 -8 2 -4 -13 -6
-35 -4 -32 3 -39 1 -39 -13 0 -15 2 -16 17 -4 15 13 15 12 5 -7 -6 -12 -23
-25 -38 -28 -14 -4 -24 -9 -22 -12 3 -2 65 14 139 37 146 44 179 67 179 120 0
34 -15 68 -39 86 -30 23 -95 11 -268 -46z"/>
<path d="M3332 5185 c4 -4 3 -16 -3 -26 -5 -11 -7 -19 -5 -19 3 0 10 9 16 19
7 15 7 22 -2 27 -7 4 -10 4 -6 -1z"/>
<path d="M5622 5093 c-51 -139 -72 -276 -70 -438 1 -71 3 -113 5 -92 3 24 8
35 15 31 6 -4 8 -3 5 3 -4 6 -1 16 7 22 7 6 12 25 10 43 -22 273 -7 357 62
349 7 -1 14 5 17 13 4 10 1 13 -9 9 -10 -4 -12 0 -8 11 4 10 1 16 -7 16 -12 0
-12 2 0 9 8 5 9 11 3 15 -6 3 -9 20 -7 36 2 17 3 30 1 30 -2 0 -13 -26 -24
-57z"/>
<path d="M3291 5094 c-12 -20 -20 -38 -18 -40 2 -2 14 14 26 36 28 50 21 53
-8 4z"/>
<path d="M2790 5080 c8 -5 20 -10 25 -10 6 0 3 5 -5 10 -8 5 -19 10 -25 10 -5
0 -3 -5 5 -10z"/>
<path d="M2650 5071 c0 -5 5 -13 10 -16 6 -3 10 -2 10 4 0 5 -4 13 -10 16 -5
3 -10 2 -10 -4z"/>
<path d="M2345 5039 c-75 -23 -102 -37 -110 -57 -5 -14 -4 -14 12 0 25 21 51
29 58 18 4 -7 13 -6 25 0 10 5 26 7 36 3 13 -5 16 -3 11 10 -4 12 2 21 21 31
36 20 20 18 -53 -5z"/>
<path d="M2606 5052 c-3 -4 4 -9 15 -9 23 -2 25 3 4 10 -8 4 -16 3 -19 -1z"/>
<path d="M2780 5049 c0 -5 5 -7 10 -4 6 3 10 8 10 11 0 2 -4 4 -10 4 -5 0 -10
-5 -10 -11z"/>
<path d="M5790 5026 c-12 -36 -17 -40 -57 -36 -15 1 -23 -4 -23 -14 0 -9 4
-16 8 -16 4 0 6 -16 4 -36 -3 -28 -1 -35 8 -29 12 8 10 -113 -6 -308 -4 -44
-2 -73 6 -82 10 -12 48 -152 54 -202 2 -13 9 -29 16 -38 10 -13 9 -15 -9 -15
-12 0 -19 -4 -16 -10 3 -5 1 -10 -6 -10 -7 0 -9 -3 -6 -6 4 -4 13 -1 21 6 19
15 31 4 64 -56 29 -54 28 -58 -10 -85 -17 -13 -28 -18 -25 -12 4 7 2 15 -5 19
-7 4 -10 4 -6 -1 22 -24 -61 -129 -112 -141 -53 -13 -60 -16 -55 -25 3 -5 -2
-6 -11 -2 -12 4 -15 3 -10 -5 4 -7 2 -12 -3 -12 -6 0 -11 6 -11 13 0 8 -7 14
-15 14 -8 0 -15 -4 -15 -9 0 -4 5 -8 11 -8 7 0 9 -10 5 -26 -5 -17 -3 -23 4
-19 5 3 10 2 10 -2 0 -11 -73 -83 -83 -83 -4 0 -29 -16 -57 -36 -27 -20 -50
-31 -50 -24 0 6 -4 8 -10 5 -6 -3 -7 1 -4 9 3 9 1 16 -4 16 -6 0 -9 -16 -7
-35 2 -19 -2 -38 -8 -42 -6 -4 -8 0 -4 10 3 9 2 19 -2 21 -14 9 -21 -6 -11
-25 8 -13 6 -20 -7 -28 -10 -6 -14 -11 -9 -11 5 0 -11 -16 -35 -35 -24 -19
-50 -33 -56 -30 -7 2 -12 -1 -10 -8 1 -8 -9 -11 -32 -9 -21 2 -31 0 -27 -7 4
-5 -5 -18 -19 -27 -13 -9 -22 -21 -19 -26 8 -12 -33 -56 -71 -75 -16 -9 -37
-24 -46 -34 -9 -10 -19 -16 -23 -12 -3 3 -6 2 -6 -4 0 -6 -7 -13 -14 -16 -10
-4 -13 -1 -9 10 3 8 -7 2 -24 -13 -19 -19 -26 -32 -19 -36 8 -5 8 -8 0 -8 -6
0 -28 -16 -50 -35 -21 -19 -43 -35 -48 -35 -6 0 -22 -11 -36 -25 -24 -23 -28
-24 -40 -10 -7 8 -18 15 -24 15 -6 0 -4 -5 4 -10 13 -8 12 -13 -7 -32 -13 -12
-23 -17 -23 -10 0 7 -5 12 -11 12 -6 0 -9 -7 -6 -15 4 -8 1 -17 -5 -21 -7 -4
-8 -3 -4 4 5 8 2 10 -8 6 -9 -3 -14 -9 -12 -13 6 -10 -5 -24 -34 -43 -14 -10
-44 -31 -68 -48 -24 -17 -48 -27 -54 -24 -6 4 -8 2 -4 -4 7 -12 -39 -52 -60
-52 -8 0 -14 -4 -14 -9 0 -5 -15 -16 -33 -24 -17 -9 -52 -30 -77 -48 -60 -44
-111 -70 -123 -62 -6 3 -7 1 -3 -6 5 -7 -3 -21 -20 -34 -42 -33 -138 -86 -146
-81 -5 3 -8 0 -8 -7 0 -7 -11 -10 -30 -7 -17 3 -33 1 -36 -3 -2 -5 -11 -6 -19
-3 -17 7 -55 -13 -55 -29 0 -8 3 -8 9 1 7 11 10 10 15 -3 9 -24 8 -35 -5 -35
-5 0 -27 -13 -47 -30 -47 -37 -129 -73 -149 -66 -11 5 -14 2 -9 -10 5 -14 4
-15 -9 -4 -10 8 -15 9 -15 1 0 -6 -9 -11 -21 -11 -11 0 -30 -5 -41 -11 -16 -9
-18 -13 -7 -20 10 -6 7 -14 -16 -34 l-30 -27 40 20 c72 36 409 237 596 357
597 379 1162 814 1637 1258 l62 58 -34 67 c-126 251 -150 545 -67 812 11 35
19 66 17 68 -2 2 -9 -13 -16 -32z m-615 -1506 c-3 -5 -12 -10 -18 -10 -7 0 -6
4 3 10 19 12 23 12 15 0z"/>
<path d="M2391 4974 c0 -11 3 -14 6 -6 3 7 2 16 -1 19 -3 4 -6 -2 -5 -13z"/>
<path d="M2222 4932 c-3 -46 84 -340 89 -302 7 54 4 66 -16 88 -22 24 -50 126
-39 143 3 5 0 9 -6 9 -7 0 -10 7 -6 15 3 8 1 15 -4 15 -5 0 -11 15 -13 33 l-4
32 -1 -33z"/>
<path d="M7990 4950 c0 -5 5 -10 11 -10 5 0 7 5 4 10 -3 6 -8 10 -11 10 -2 0
-4 -4 -4 -10z"/>
<path d="M8027 4946 c-3 -8 0 -17 7 -19 10 -4 12 1 9 14 -6 23 -9 24 -16 5z"/>
<path d="M2446 4897 c-15 -5 -26 -12 -27 -15 -5 -38 -4 -90 2 -87 9 6 29 -51
21 -61 -4 -4 -2 -4 5 -1 7 5 14 -4 18 -24 4 -17 9 -28 12 -26 2 3 -8 44 -22
92 -15 48 -24 89 -22 92 3 2 31 13 64 22 l58 18 -42 -1 c-23 0 -53 -5 -67 -9z"/>
<path d="M3578 4853 c-16 -30 -13 -63 4 -63 16 0 1 -13 -18 -16 -12 -2 -14 3
-10 19 5 21 4 21 -9 3 -11 -14 -11 -21 -2 -31 7 -7 18 -10 24 -8 7 3 13 0 13
-6 0 -6 10 -11 23 -11 25 1 63 45 47 55 -6 3 -8 17 -6 30 3 13 -2 29 -10 36
-10 8 -14 8 -14 0 0 -6 5 -11 10 -11 6 0 0 -12 -14 -27 -14 -15 -28 -24 -32
-20 -4 4 -2 7 4 7 7 0 12 8 12 18 0 14 -2 15 -10 2 -9 -13 -10 -13 -10 1 0 8
5 20 12 27 6 6 9 14 6 18 -4 3 -13 -7 -20 -23z m32 -93 c0 -5 -2 -10 -4 -10
-3 0 -8 5 -11 10 -3 6 -1 10 4 10 6 0 11 -4 11 -10z"/>
<path d="M3060 4803 c0 -20 3 -24 9 -14 6 8 14 10 22 5 25 -15 39 -13 50 9 9
19 8 20 -3 6 -9 -11 -19 -14 -33 -8 -11 4 -15 8 -10 8 11 1 -15 21 -27 21 -5
0 -8 -12 -8 -27z"/>
<path d="M3733 4773 c-10 -16 -25 -41 -33 -57 -8 -15 -25 -32 -37 -37 -13 -5
-23 -11 -23 -14 0 -4 5 -3 10 0 14 8 12 -12 -5 -59 -20 -56 -5 -35 59 87 55
104 67 136 29 80z"/>
<path d="M8108 4710 c-17 -176 -18 -199 -9 -221 12 -33 24 95 19 211 l-3 85
-7 -75z"/>
<path d="M3106 4755 c-9 -26 -7 -32 5 -12 6 10 9 21 6 23 -2 3 -7 -2 -11 -11z"/>
<path d="M3030 4751 c0 -6 4 -13 10 -16 6 -3 7 1 4 9 -7 18 -14 21 -14 7z"/>
<path d="M3506 4723 c-6 -14 -5 -15 5 -6 7 7 10 15 7 18 -3 3 -9 -2 -12 -12z"/>
<path d="M3606 4721 c-21 -8 -31 -41 -13 -40 19 1 53 18 38 18 -7 1 -11 7 -7
16 3 8 4 15 3 14 -1 0 -11 -4 -21 -8z"/>
<path d="M3027 4706 c-4 -10 -1 -13 8 -9 8 3 12 9 9 14 -7 12 -11 11 -17 -5z"/>
<path d="M3076 4705 c4 -8 7 -15 9 -15 2 0 5 7 9 15 3 9 0 15 -9 15 -9 0 -12
-6 -9 -15z"/>
<path d="M3057 4687 c-3 -8 1 -14 8 -14 7 0 11 6 8 14 -3 7 -6 13 -8 13 -2 0
-5 -6 -8 -13z"/>
<path d="M2812 4553 c-58 -125 -104 -235 -98 -240 2 -2 13 21 26 52 12 30 26
55 30 55 4 0 13 14 20 30 10 23 17 29 31 25 11 -4 19 -2 19 3 0 5 8 9 18 8 13
-1 17 7 17 29 0 21 -4 29 -15 27 -12 -3 -12 -1 -3 9 10 10 9 15 -3 24 -14 10
-14 14 -3 26 12 12 24 59 15 59 -1 0 -26 -48 -54 -107z"/>
<path d="M3055 4649 c-4 -6 -5 -12 -2 -15 2 -3 7 2 10 11 7 17 1 20 -8 4z"/>
<path d="M2494 4610 c1 -20 5 -41 10 -48 4 -6 2 -20 -4 -31 -8 -16 -6 -21 9
-26 11 -3 24 -18 30 -33 22 -62 7 10 -19 88 -20 60 -28 75 -26 50z"/>
<path d="M2311 4594 c0 -11 3 -14 6 -6 3 7 2 16 -1 19 -3 4 -6 -2 -5 -13z"/>
<path d="M3020 4570 c-6 -11 -8 -20 -6 -20 3 0 10 9 16 20 6 11 8 20 6 20 -3
0 -10 -9 -16 -20z"/>
<path d="M3410 4539 c-7 -11 -9 -23 -6 -26 3 -3 8 2 12 11 3 9 9 14 13 11 4
-2 8 2 8 10 0 22 -15 18 -27 -6z"/>
<path d="M3615 4549 c-4 -6 -5 -12 -2 -15 2 -3 7 2 10 11 7 17 1 20 -8 4z"/>
<path d="M2337 4520 c3 -14 18 -63 33 -110 22 -68 28 -78 29 -52 1 18 5 42 11
52 7 13 6 21 -5 30 -8 7 -15 18 -15 26 0 7 -8 15 -18 18 -10 4 -23 18 -30 34
-10 24 -11 24 -5 2z m68 -90 c3 -5 1 -10 -4 -10 -6 0 -11 5 -11 10 0 6 2 10 4
10 3 0 8 -4 11 -10z"/>
<path d="M3430 4504 c0 -10 -6 -13 -19 -9 -12 4 -21 0 -25 -12 -4 -10 -4 -14
0 -10 4 4 14 1 22 -6 13 -10 14 -9 7 3 -4 8 -5 12 0 8 4 -4 14 -3 22 3 15 13
18 39 3 39 -5 0 -10 -7 -10 -16z"/>
<path d="M5561 4500 c-1 -28 21 -132 42 -200 13 -45 13 -44 9 40 -3 54 -10 88
-18 95 -8 5 -18 28 -23 50 -6 28 -9 32 -10 15z"/>
<path d="M3435 4469 c-10 -15 3 -25 16 -12 7 7 7 13 1 17 -6 3 -14 1 -17 -5z"/>
<path d="M3566 4450 c-9 -17 -24 -30 -32 -30 -9 0 -24 -10 -35 -22 -10 -13
-18 -17 -19 -10 0 6 4 12 8 12 4 0 8 9 9 20 2 17 -4 20 -38 20 -21 0 -39 -4
-39 -10 0 -5 3 -9 8 -9 19 3 26 -2 13 -10 -20 -13 -23 -47 -6 -61 12 -10 18
-10 30 0 9 8 15 8 15 2 0 -6 -9 -14 -20 -17 -11 -3 -20 -10 -20 -15 0 -5 6 -7
13 -5 6 3 18 1 25 -4 10 -6 11 -13 1 -34 -7 -15 -17 -27 -22 -27 -6 0 -7 -3
-4 -7 4 -3 -2 -12 -13 -20 -21 -15 -29 -39 -8 -27 6 4 9 3 7 -2 -26 -51 -52
-134 -46 -141 2 -1 25 48 52 110 26 61 70 156 97 211 47 94 61 138 24 76z"/>
<path d="M2957 4435 c-24 -50 -20 -58 4 -12 11 22 19 41 17 43 -3 2 -12 -12
-21 -31z"/>
<path d="M8092 4440 c0 -14 2 -19 5 -12 2 6 2 18 0 25 -3 6 -5 1 -5 -13z"/>
<path d="M2895 4421 c-7 -12 12 -24 25 -16 6 3 10 12 9 18 0 9 -2 9 -6 0 -2
-7 -9 -13 -14 -13 -6 0 -7 5 -4 10 3 6 4 10 1 10 -3 0 -7 -4 -11 -9z"/>
<path d="M2838 4391 c-8 -12 -18 -18 -23 -13 -5 4 -5 1 -1 -6 6 -11 13 -9 28
8 11 12 18 24 15 26 -3 3 -11 -4 -19 -15z"/>
<path d="M8081 4394 c0 -11 3 -14 6 -6 3 7 2 16 -1 19 -3 4 -6 -2 -5 -13z"/>
<path d="M2887 4366 c-4 -10 -1 -13 9 -9 15 6 19 23 5 23 -5 0 -11 -7 -14 -14z"/>
<path d="M2571 4354 c-1 -13 -17 -34 -38 -50 -20 -15 -33 -22 -29 -15 6 10 3
9 -13 -1 -44 -27 -12 -39 38 -13 29 15 57 65 48 87 -3 7 -6 3 -6 -8z"/>
<path d="M8071 4354 c0 -11 3 -14 6 -6 3 7 2 16 -1 19 -3 4 -6 -2 -5 -13z"/>
<path d="M2910 4350 c-13 -8 -13 -11 -1 -22 8 -8 11 -8 7 -1 -3 6 0 13 6 16 7
2 11 7 8 10 -3 3 -12 2 -20 -3z"/>
<path d="M2860 4340 c0 -6 7 -10 15 -10 8 0 15 2 15 4 0 2 -7 6 -15 10 -8 3
-15 1 -15 -4z"/>
<path d="M2821 4324 c0 -11 3 -14 6 -6 3 7 2 16 -1 19 -3 4 -6 -2 -5 -13z"/>
<path d="M2895 4289 c-6 -17 -9 -19 -16 -8 -5 8 -9 10 -9 4 0 -5 4 -16 8 -23
6 -9 12 -5 21 14 6 15 10 29 7 31 -2 2 -7 -5 -11 -18z"/>
<path d="M2687 4263 c-103 -238 -269 -741 -332 -1009 -29 -121 -28 -152 1 -42
15 58 23 72 37 70 9 -2 17 3 17 10 0 7 12 0 26 -16 21 -22 32 -27 55 -22 16 3
29 1 29 -4 0 -6 -5 -10 -11 -10 -5 0 -8 -4 -5 -9 11 -17 40 -4 47 20 11 39 10
49 -6 43 -9 -4 -15 0 -15 10 0 9 -7 16 -16 16 -8 0 -13 4 -10 9 8 12 -21 34
-34 26 -5 -3 -10 1 -10 9 0 8 8 17 18 19 13 4 12 5 -4 6 -14 1 -24 10 -28 26
-4 14 -10 25 -15 25 -5 0 -8 10 -7 23 4 36 37 141 48 155 22 26 83 6 71 -24
-3 -8 0 -14 6 -14 7 0 21 -9 33 -20 12 -10 24 -17 28 -15 3 2 5 -10 3 -28 -1
-18 11 8 27 58 17 49 28 94 26 100 -3 5 -5 2 -5 -7 -1 -9 -5 -20 -11 -23 -5
-3 -7 0 -4 8 3 8 -2 14 -11 14 -8 0 -15 -6 -15 -13 0 -7 -10 -11 -24 -10 -26
3 -27 -6 -7 -43 14 -25 6 -23 -30 8 -16 13 -16 17 -3 43 8 15 20 28 27 28 6 0
4 5 -6 11 -15 9 -16 13 -5 27 10 12 10 14 1 8 -9 -5 -13 0 -13 18 0 14 -5 28
-10 31 -6 4 -7 11 -4 17 4 7 2 8 -4 4 -18 -11 -14 12 17 100 45 128 52 139 85
136 15 -2 25 1 23 5 -3 5 4 10 16 10 17 2 19 0 7 -7 -12 -8 -10 -10 7 -10 18
0 22 -5 20 -22 -1 -16 3 -23 15 -22 11 1 15 -4 12 -15 -3 -9 1 -5 9 9 9 14 13
28 11 32 -3 5 4 8 14 8 12 0 22 9 25 22 8 29 1 36 -8 9 -3 -12 -10 -21 -15
-21 -5 0 -7 6 -4 14 7 18 -12 29 -51 32 -31 1 -37 22 -10 37 17 9 10 33 -19
66 -12 13 -14 20 -6 16 13 -8 13 -6 2 7 -11 13 -10 23 3 54 8 20 14 39 12 41
-2 2 -11 -14 -20 -34z m-77 -643 c0 -5 -4 -10 -10 -10 -5 0 -10 5 -10 10 0 6
5 10 10 10 6 0 10 -4 10 -10z"/>
<path d="M7918 4283 c7 -3 16 -2 19 1 4 3 -2 6 -13 5 -11 0 -14 -3 -6 -6z"/>
<path d="M7965 4270 c-3 -5 -1 -10 4 -10 6 0 11 5 11 10 0 6 -2 10 -4 10 -3 0
-8 -4 -11 -10z"/>
<path d="M7920 4250 c0 -5 5 -10 10 -10 6 0 10 5 10 10 0 6 -4 10 -10 10 -5 0
-10 -4 -10 -10z"/>
<path d="M5620 4249 c0 -3 7 -27 17 -54 l16 -49 -69 -60 c-89 -79 -170 -157
-126 -122 40 31 38 31 85 6 21 -11 42 -18 47 -15 4 3 11 -1 13 -7 4 -10 8 -10
16 2 5 8 7 19 3 25 -3 5 1 4 10 -3 13 -10 16 -9 21 7 3 15 0 20 -12 19 -9 -1
-27 0 -41 1 -23 2 -24 3 -5 11 11 5 15 9 8 9 -8 1 -11 13 -8 34 4 34 68 103
85 92 6 -3 10 4 10 17 l1 23 15 -25 c8 -14 13 -18 11 -9 -3 8 4 21 14 27 25
16 24 32 -1 27 -11 -2 -22 0 -25 6 -4 5 -19 9 -35 9 -17 0 -33 7 -39 18 -6 9
-11 14 -11 11z m90 -54 c11 -13 10 -14 -4 -9 -9 3 -16 10 -16 15 0 13 6 11 20
-6z m-120 -211 c0 -2 -7 -4 -15 -4 -8 0 -15 4 -15 10 0 5 7 7 15 4 8 -4 15 -8
15 -10z"/>
<path d="M7958 4234 c-4 -3 -4 -13 -1 -22 5 -11 3 -13 -8 -7 -11 6 -12 5 -1
-6 17 -18 38 3 25 25 -5 9 -12 14 -15 10z"/>
<path d="M3251 4193 c-6 -14 -9 -28 -6 -31 3 -3 5 0 5 7 0 7 5 9 13 5 6 -4 9
-4 5 1 -4 4 -3 14 3 21 6 7 6 15 1 18 -5 3 -14 -6 -21 -21z"/>
<path d="M3332 4169 c2 -6 8 -10 13 -10 5 0 11 4 13 10 2 6 -4 11 -13 11 -9 0
-15 -5 -13 -11z"/>
<path d="M2836 4153 c-6 -14 -5 -15 5 -6 7 7 10 15 7 18 -3 3 -9 -2 -12 -12z"/>
<path d="M2740 4099 c0 -5 5 -7 10 -4 6 3 10 8 10 11 0 2 -4 4 -10 4 -5 0 -10
-5 -10 -11z"/>
<path d="M2765 4080 c3 -5 11 -10 16 -10 6 0 7 5 4 10 -3 6 -11 10 -16 10 -6
0 -7 -4 -4 -10z"/>
<path d="M3196 4063 c-6 -14 -5 -15 5 -6 7 7 10 15 7 18 -3 3 -9 -2 -12 -12z"/>
<path d="M3236 4036 c3 -7 -3 -16 -13 -20 -14 -6 -15 -9 -3 -16 10 -6 17 -2
25 13 12 23 10 37 -5 37 -5 0 -7 -6 -4 -14z"/>
<path d="M3376 4025 c-9 -26 -7 -32 5 -12 6 10 9 21 6 23 -2 3 -7 -2 -11 -11z"/>
<path d="M7930 4010 c-6 -11 -8 -20 -6 -20 3 0 10 9 16 20 6 11 8 20 6 20 -3
0 -10 -9 -16 -20z"/>
<path d="M2776 3995 c-9 -26 -7 -32 5 -12 6 10 9 21 6 23 -2 3 -7 -2 -11 -11z"/>
<path d="M3156 3965 c-9 -26 -7 -32 5 -12 6 10 9 21 6 23 -2 3 -7 -2 -11 -11z"/>
<path d="M3290 3967 c0 -19 16 -31 24 -18 3 5 -1 14 -9 21 -12 10 -15 10 -15
-3z"/>
<path d="M3329 3943 c-13 -14 -17 -23 -9 -19 8 4 6 0 -4 -8 -11 -9 -23 -16
-27 -16 -4 0 -15 -14 -23 -32 -17 -33 -21 -52 -7 -30 6 10 10 9 14 -7 3 -12 1
-19 -3 -16 -5 3 -11 -1 -13 -7 -4 -10 -6 -10 -6 0 -1 6 -6 12 -13 12 -6 0 -2
-10 10 -23 12 -13 20 -26 17 -28 -2 -3 -7 -23 -9 -45 -5 -46 -4 -44 59 120 25
65 44 120 42 122 -2 2 -14 -8 -28 -23z"/>
<path d="M5340 3874 c-197 -172 -491 -401 -770 -598 -91 -65 -176 -126 -190
-137 l-25 -19 25 12 c14 7 27 16 30 19 16 18 101 59 111 53 8 -4 9 -3 5 4 -4
7 -2 12 3 12 6 0 11 -5 11 -10 0 -7 6 -7 18 -1 15 8 18 5 17 -17 0 -24 4 -27
33 -27 22 -1 31 3 28 12 -3 7 0 16 7 20 15 10 18 56 3 66 -6 5 0 5 13 2 20 -6
23 -4 18 9 -4 9 -9 22 -12 29 -7 17 3 29 52 64 42 30 96 38 112 17 7 -11 56
-12 66 -2 13 13 -5 58 -23 58 -15 0 -15 2 -2 10 22 14 30 12 30 -9 0 -11 5
-23 12 -27 8 -5 9 -2 5 9 -3 10 -2 17 3 17 6 0 10 5 10 11 0 5 -5 7 -11 3 -8
-5 -8 -1 0 14 6 12 19 26 29 31 16 10 16 10 0 11 -22 0 -23 7 -1 28 52 52 87
72 119 68 19 -2 34 1 34 6 0 5 9 6 20 3 14 -5 20 -2 20 9 0 9 8 16 18 16 14 0
15 2 2 10 -8 5 -11 10 -6 10 5 0 3 7 -4 15 -10 12 -6 20 22 45 34 32 93 66 82
49 -3 -6 0 -10 7 -8 29 3 39 -2 39 -20 0 -13 6 -19 19 -18 16 1 18 4 8 16 -10
12 -9 13 11 2 14 -7 22 -8 22 -1 0 5 -4 10 -10 10 -14 0 -12 42 3 62 9 11 18
14 28 7 12 -7 11 -9 -3 -9 -9 0 -20 -4 -23 -10 -4 -6 2 -7 17 -1 29 10 35 37
13 60 -15 17 -14 21 10 50 15 17 25 31 23 31 -1 -1 -37 -30 -78 -66z"/>
<path d="M3126 3884 c-8 -22 -4 -25 11 -9 7 8 9 16 4 19 -5 3 -12 -1 -15 -10z"/>
<path d="M3184 3869 c5 -27 4 -30 -9 -19 -9 7 -18 10 -22 6 -3 -3 -1 -6 6 -6
8 0 11 -10 7 -30 -2 -16 0 -32 4 -35 5 -3 7 4 5 15 -3 14 1 20 13 20 14 0 17
7 14 40 -2 22 -9 40 -14 40 -6 0 -8 -13 -4 -31z"/>
<path d="M3218 3869 c-3 -8 1 -20 8 -27 15 -14 17 -7 5 22 -6 15 -9 16 -13 5z"/>
<path d="M3106 3835 c-9 -26 -7 -32 5 -12 6 10 9 21 6 23 -2 3 -7 -2 -11 -11z"/>
<path d="M5970 3698 c-297 -267 -652 -556 -951 -773 -96 -69 -185 -135 -199
-146 l-25 -20 25 12 c14 6 33 18 43 27 9 8 17 12 17 8 0 -4 10 2 22 14 12 11
30 20 40 20 10 0 18 5 18 11 0 8 6 7 16 -2 14 -11 19 -10 36 11 11 13 22 20
26 14 4 -5 16 -16 27 -24 19 -15 19 -14 2 10 -19 27 -23 70 -6 70 5 0 7 -6 3
-12 -4 -8 -3 -9 2 -5 5 5 9 15 9 22 0 14 137 125 155 125 5 0 10 4 10 9 0 15
33 22 42 9 4 -7 8 -8 8 -2 0 5 13 20 30 32 23 18 28 19 23 5 -5 -12 -3 -14 8
-9 8 4 6 1 -4 -7 -14 -12 -15 -17 -5 -23 23 -15 40 -13 34 3 -22 56 -16 74 30
85 20 5 24 -5 14 -32 -1 -3 -2 -9 -1 -13 1 -5 -8 -11 -19 -14 -18 -5 -19 -7
-5 -17 13 -9 14 -17 6 -39 -7 -17 -15 -25 -23 -21 -7 4 -8 3 -4 -5 4 -6 0 -14
-8 -17 -9 -3 -16 -10 -16 -16 0 -5 5 -6 10 -3 23 14 8 -13 -22 -41 -76 -70
-170 -130 -187 -119 -15 9 -40 -6 -35 -20 4 -9 -4 -11 -31 -8 -30 3 -37 0 -44
-20 -5 -12 -16 -29 -25 -36 -9 -7 -16 -22 -16 -31 0 -10 -19 -33 -42 -51 -51
-39 -69 -55 -48 -44 100 56 760 564 910 700 30 28 87 77 125 110 39 33 96 84
127 113 l57 54 59 -36 c78 -47 193 -99 277 -125 85 -27 99 -27 86 -2 -6 10 -7
21 -4 25 3 3 -7 6 -23 6 -18 0 -34 7 -41 20 -13 19 -2 37 16 26 4 -3 8 8 7 24
-1 30 -10 38 -21 20 -4 -6 -12 -7 -18 -3 -7 4 -5 -2 3 -12 12 -15 12 -17 1
-10 -11 6 -13 4 -8 -7 3 -9 0 -21 -6 -27 -14 -14 -54 -14 -62 -1 -4 6 -11 8
-16 5 -5 -4 -16 1 -24 9 -9 8 -30 15 -48 14 -33 -1 -76 18 -114 51 -23 19 -33
48 -13 36 6 -3 10 1 10 9 0 23 -58 18 -72 -7 -8 -16 -12 -17 -19 -6 -7 11 -9
10 -9 -4 0 -25 -21 -45 -42 -39 -10 2 -25 -1 -33 -8 -8 -7 -15 -8 -15 -4 0 5
9 15 20 22 28 17 16 32 -26 32 -38 0 -38 1 -24 -37 9 -26 9 -27 -5 -9 -8 11
-15 15 -15 8 0 -6 -7 -9 -15 -6 -21 8 -19 18 11 53 14 17 21 31 14 31 -12 0
-10 3 51 73 24 26 49 47 56 47 8 0 12 3 10 8 -2 4 8 17 23 29 24 19 29 20 34
8 3 -9 -1 -18 -9 -21 -8 -4 -15 -11 -15 -17 0 -5 8 -3 19 7 22 20 47 12 55
-17 3 -12 8 -18 11 -15 6 6 215 -96 257 -124 9 -6 14 -16 11 -22 -3 -6 0 -6 7
1 18 17 44 5 29 -13 -15 -18 11 -20 30 -1 11 10 13 10 7 0 -4 -7 -2 -13 4 -13
6 0 8 -5 5 -10 -4 -6 -3 -10 2 -9 26 5 42 -2 37 -16 -4 -8 -1 -15 6 -15 8 0
11 9 8 25 l-5 25 71 -6 c79 -7 270 -6 329 1 28 3 36 1 30 -8 -4 -7 0 -7 10 2
9 7 17 10 17 6 0 -4 6 -3 13 2 10 8 102 43 114 43 2 0 3 -9 3 -20 0 -11 4 -20
10 -20 5 0 26 -32 45 -70 26 -51 33 -75 26 -87 -6 -12 -2 -23 15 -40 14 -13
21 -30 18 -36 -4 -7 -4 -9 1 -5 7 7 35 -14 35 -26 0 -3 12 -18 27 -33 l27 -28
-26 45 c-14 25 -58 108 -98 185 -41 77 -74 141 -75 143 -1 1 -40 -7 -86 -18
-109 -27 -308 -37 -420 -20 -166 24 -312 83 -470 191 -47 33 -88 59 -90 58 -2
0 -69 -59 -149 -131z m-98 -151 c7 4 9 0 5 -10 -4 -12 -1 -15 15 -12 11 2 26
9 34 16 11 9 14 8 14 -4 0 -9 4 -19 10 -22 6 -4 7 1 4 12 -5 15 -4 15 4 3 7
-9 7 -19 2 -26 -6 -6 -7 -14 -3 -17 3 -4 1 -7 -6 -7 -7 0 -10 -7 -6 -19 5 -17
-16 -41 -93 -103 -20 -16 -22 -16 -31 0 -6 9 -11 13 -11 7 0 -5 -5 -3 -10 5
-7 12 -12 12 -22 2 -10 -10 -10 -15 2 -22 12 -7 12 -12 2 -22 -8 -8 -15 -9
-20 -3 -4 6 -24 18 -44 27 -29 13 -36 14 -32 3 6 -14 27 -27 60 -34 3 0 -6
-11 -20 -23 -14 -13 -26 -32 -28 -43 -5 -36 -150 -165 -163 -145 -3 5 -11 10
-16 10 -6 0 -7 -6 -3 -12 5 -9 2 -9 -9 1 -15 12 -17 11 -17 -8 0 -13 -4 -19
-11 -16 -6 4 -8 13 -5 21 4 10 0 11 -19 4 -17 -6 -25 -5 -29 5 -3 9 1 12 14
10 27 -5 34 11 8 18 -17 5 -19 9 -9 21 10 12 9 15 -6 18 -15 4 -13 7 10 18 19
9 24 16 15 21 -15 9 7 39 28 39 8 0 14 6 15 13 0 19 98 89 115 83 8 -3 13 -2
10 2 -2 4 -1 14 5 22 6 11 9 11 9 2 0 -8 8 -10 25 -6 14 3 32 1 40 -6 16 -14
35 -5 35 16 0 8 5 14 10 14 6 0 10 5 10 12 0 9 -3 9 -12 0 -20 -20 -28 -14
-28 19 0 16 4 28 9 25 8 -5 25 21 23 34 0 3 23 23 51 44 41 30 53 35 55 22 2
-9 8 -13 14 -9z m608 -71 c0 -2 -7 -7 -16 -10 -8 -3 -12 -2 -9 4 6 10 25 14
25 6z m-770 -70 c0 -3 -4 -8 -10 -11 -5 -3 -10 -1 -10 4 0 6 5 11 10 11 6 0
10 -2 10 -4z m-410 -300 c0 -3 -4 -8 -10 -11 -5 -3 -10 -1 -10 4 0 6 5 11 10
11 6 0 10 -2 10 -4z"/>
<path d="M5664 3336 c3 -10 1 -25 -5 -32 -7 -8 -7 -14 -1 -14 22 0 30 25 15
45 -14 18 -15 18 -9 1z"/>
<path d="M5675 3280 c-3 -5 -1 -10 4 -10 6 0 11 5 11 10 0 6 -2 10 -4 10 -3 0
-8 -4 -11 -10z"/>
<path d="M5423 3794 c2 -12 0 -28 -5 -37 -7 -13 -5 -15 7 -11 17 7 19 32 4 54
-9 12 -10 11 -6 -6z"/>
<path d="M3072 3737 c-13 -37 -20 -71 -16 -82 5 -12 4 -16 -4 -11 -13 8 -36
-64 -24 -76 4 -4 8 6 9 22 1 16 11 38 23 50 11 11 21 31 21 45 1 24 5 43 8 48
4 4 11 67 8 67 -1 0 -12 -29 -25 -63z"/>
<path d="M6195 3730 c-3 -5 -1 -10 4 -10 6 0 11 5 11 10 0 6 -2 10 -4 10 -3 0
-8 -4 -11 -10z"/>
<path d="M3100 3705 c0 -8 4 -15 8 -15 5 0 9 7 9 15 0 8 -4 15 -9 15 -4 0 -8
-7 -8 -15z"/>
<path d="M6161 3711 c-8 -5 -9 -11 -3 -15 5 -3 12 1 16 9 6 17 6 18 -13 6z"/>
<path d="M6217 3713 c-10 -10 -8 -23 4 -23 5 0 7 5 4 10 -3 6 -1 10 4 10 6 0
11 -5 11 -11 0 -5 5 -7 10 -4 6 4 8 11 5 16 -7 11 -29 12 -38 2z"/>
<path d="M2610 3690 c0 -5 5 -10 11 -10 5 0 7 5 4 10 -3 6 -8 10 -11 10 -2 0
-4 -4 -4 -10z"/>
<path d="M6180 3690 c0 -5 5 -10 11 -10 5 0 7 5 4 10 -3 6 -8 10 -11 10 -2 0
-4 -4 -4 -10z"/>
<path d="M3101 3664 c0 -11 3 -14 6 -6 3 7 2 16 -1 19 -3 4 -6 -2 -5 -13z"/>
<path d="M3220 3624 c-14 -35 -25 -51 -30 -44 -6 10 -13 9 -31 -4 -15 -10 -18
-16 -9 -16 13 0 13 -2 0 -10 -13 -9 -13 -11 0 -20 8 -5 16 -15 16 -22 1 -7 3
-24 4 -38 1 -15 17 20 41 89 42 124 47 155 9 65z"/>
<path d="M3115 3651 c-6 -5 -19 -11 -29 -13 -11 -1 -23 -15 -27 -30 -6 -24 -4
-26 30 -30 55 -7 72 0 69 31 -2 14 -8 32 -15 39 -14 14 -16 15 -28 3z"/>
<path d="M5113 3595 c0 -8 4 -15 9 -15 4 0 8 4 8 9 0 6 -4 12 -8 15 -5 3 -9
-1 -9 -9z"/>
<path d="M3115 3550 c3 -5 8 -10 11 -10 2 0 4 5 4 10 0 6 -5 10 -11 10 -5 0
-7 -4 -4 -10z"/>
<path d="M6526 3515 c4 -8 8 -15 10 -15 2 0 4 7 4 15 0 8 -4 15 -10 15 -5 0
-7 -7 -4 -15z"/>
<path d="M4949 3458 c-8 -28 -5 -35 15 -31 17 4 18 3 6 -6 -8 -5 -11 -13 -8
-16 4 -4 13 -1 20 6 12 11 11 16 -4 31 -16 16 -27 22 -29 16z"/>
<path d="M3146 3382 c-21 -66 -32 -82 -56 -82 -13 0 -19 -10 -22 -35 -2 -19 0
-35 4 -35 4 0 8 -7 8 -16 0 -8 -4 -12 -10 -9 -5 3 -7 0 -4 -9 3 -8 1 -23 -5
-33 -6 -10 -11 -13 -11 -8 -2 20 -8 91 -11 128 -2 20 -7 37 -11 37 -4 0 -8 6
-8 13 0 7 -9 13 -20 13 -11 0 -20 -6 -20 -13 0 -17 17 -25 23 -11 4 10 6 10 6
1 1 -7 -11 -25 -26 -40 -14 -15 -24 -21 -20 -12 3 9 1 21 -5 27 -6 6 -7 16 -3
23 5 6 9 28 10 48 2 30 0 26 -17 -24 -33 -103 -37 -133 -21 -139 8 -3 11 -1 8
4 -3 6 3 10 14 10 15 0 22 -9 27 -35 3 -19 10 -32 15 -29 5 3 6 -2 3 -10 -3
-8 3 -19 15 -26 12 -6 21 -18 21 -27 0 -14 2 -14 15 3 13 18 14 16 10 -20 -3
-21 -8 -42 -11 -48 -3 -5 -8 -24 -11 -41 -5 -36 -28 -77 -43 -77 -13 0 -13
-37 0 -45 6 -3 10 -21 11 -38 0 -18 13 22 29 88 32 139 92 361 122 453 11 35
18 65 16 68 -3 2 -12 -22 -22 -54z"/>
<path d="M6940 3409 c0 -5 -3 -8 -7 -8 -5 1 -10 0 -13 -1 -14 -7 -107 -6 -122
2 -9 4 -19 4 -22 0 -3 -5 -19 -9 -37 -10 -56 -1 -44 -12 17 -14 73 -2 146 0
244 8 63 5 71 8 50 16 -33 13 -110 17 -110 7z"/>
<path d="M6578 3403 c7 -3 16 -2 19 1 4 3 -2 6 -13 5 -11 0 -14 -3 -6 -6z"/>
<path d="M6628 3393 c6 -2 18 -2 25 0 6 3 1 5 -13 5 -14 0 -19 -2 -12 -5z"/>
<path d="M7160 3255 c61 -117 71 -131 60 -81 -9 40 -3 77 14 88 8 5 7 11 -1
19 -9 9 -13 6 -19 -15 -3 -14 -10 -26 -15 -26 -5 0 -6 12 -3 27 6 22 4 25 -10
20 -9 -4 -16 -2 -16 3 0 6 -7 10 -15 10 -8 0 -15 4 -15 8 0 5 -7 17 -16 28 -9
10 8 -26 36 -81z"/>
<path d="M7977 3278 c30 -58 40 -150 16 -141 -16 6 -17 -9 -1 -25 15 -15 31
-16 22 0 -4 7 -3 8 5 4 6 -4 9 -12 6 -17 -4 -5 5 -13 18 -18 14 -6 35 -20 47
-33 12 -13 -11 43 -54 130 -42 83 -78 152 -81 152 -3 0 7 -24 22 -52z"/>
<path d="M7383 3230 c3 -8 14 -39 26 -68 12 -29 17 -51 12 -47 -5 3 -13 1 -16
-5 -4 -6 -3 -10 2 -9 21 4 33 -2 33 -16 0 -8 -4 -15 -10 -15 -5 0 -10 -5 -10
-12 0 -6 10 -3 22 8 12 10 18 13 14 7 -4 -7 2 -23 14 -35 12 -13 33 -44 46
-70 26 -51 41 -66 21 -20 -35 77 -165 315 -154 282z"/>
<path d="M2475 3219 c-4 -6 -5 -12 -2 -15 2 -3 7 2 10 11 7 17 1 20 -8 4z"/>
<path d="M2296 3010 c-15 -66 -25 -126 -23 -132 3 -7 6 -3 6 8 1 30 37 38 55
12 13 -19 16 -19 30 -5 9 9 16 25 16 38 0 19 -2 20 -17 8 -16 -13 -17 -12 -4
4 7 9 20 17 28 17 12 0 12 2 1 15 -7 8 -18 21 -25 29 -7 8 -17 16 -23 18 -6 2
-11 27 -12 56 0 28 -1 52 -2 52 -2 0 -15 -54 -30 -120z"/>
<path d="M7870 3086 c19 -52 102 -208 107 -203 3 3 -2 20 -10 36 -9 17 -11 31
-6 31 5 0 9 5 9 11 0 5 -5 7 -12 3 -7 -5 -9 -2 -5 9 3 9 1 18 -6 21 -9 3 -8 5
1 5 7 1 10 6 7 11 -3 6 -1 10 6 10 7 0 5 6 -5 13 -22 16 -7 25 32 22 12 -1 22
4 22 11 0 20 -20 27 -26 9 -6 -13 -8 -14 -15 -3 -7 10 -9 10 -9 1 0 -7 -7 -13
-15 -13 -8 0 -15 5 -15 11 0 5 5 7 10 4 6 -3 10 -1 10 6 0 8 -10 9 -30 5 -22
-4 -32 -1 -36 9 -4 8 -10 15 -15 15 -5 0 -4 -11 1 -24z"/>
<path d="M4257 3062 c-201 -129 -259 -165 -411 -258 -166 -102 -211 -132 -149
-100 18 9 39 16 48 16 8 0 15 5 15 11 0 8 4 8 14 0 10 -8 16 -8 25 2 6 8 22
12 36 9 14 -2 25 0 25 6 0 5 8 9 18 9 36 0 43 3 36 16 -5 9 -3 9 7 -1 12 -11
12 -14 -1 -22 -9 -6 -10 -10 -3 -10 7 0 17 10 24 21 9 18 8 24 -6 31 -15 9
-15 11 2 24 17 13 17 14 -2 7 -20 -6 -20 -6 -1 15 30 35 105 75 124 66 28 -12
55 -9 60 5 3 9 0 11 -9 6 -11 -6 -11 -5 -3 4 6 7 20 13 32 14 11 0 20 4 20 7
-2 26 4 39 17 34 11 -5 13 -2 9 10 -5 12 2 18 26 22 17 4 34 13 37 20 3 8 9
11 14 8 5 -3 8 -1 7 5 -2 6 11 22 27 35 42 35 30 31 -38 -12z"/>
<path d="M7295 3001 c25 -51 48 -91 51 -88 11 11 13 137 2 143 -7 4 -13 3 -15
-3 -6 -16 -45 -3 -66 21 -10 11 3 -21 28 -73z m55 19 c0 -5 -2 -10 -4 -10 -3
0 -8 5 -11 10 -3 6 -1 10 4 10 6 0 11 -4 11 -10z"/>
<path d="M2873 3065 c-3 -9 -3 -18 -1 -21 3 -3 8 4 11 16 6 23 -1 27 -10 5z"/>
<path d="M5307 3063 c-14 -13 -6 -20 26 -20 17 -1 25 2 17 4 -8 3 -20 10 -26
14 -6 5 -14 6 -17 2z"/>
<path d="M2860 3020 c0 -8 -3 -25 -6 -37 -4 -13 -2 -23 4 -23 16 0 22 28 12
52 -5 14 -9 17 -10 8z"/>
<path d="M2920 3011 c0 -6 4 -13 10 -16 6 -3 7 1 4 9 -7 18 -14 21 -14 7z"/>
<path d="M8130 2971 c0 -6 4 -13 10 -16 6 -3 7 1 4 9 -7 18 -14 21 -14 7z"/>
<path d="M2471 2954 c0 -11 3 -14 6 -6 3 7 2 16 -1 19 -3 4 -6 -2 -5 -13z"/>
<path d="M8159 2924 c8 -17 23 -23 66 -29 46 -5 55 -10 55 -26 0 -11 7 -27 15
-35 10 -10 15 -11 15 -3 0 9 4 8 15 -1 10 -9 15 -9 15 -1 0 6 3 10 8 9 4 -1
34 1 68 5 37 5 72 4 89 -3 15 -6 30 -9 32 -6 11 11 -168 57 -261 68 -69 8
-105 16 -114 27 -11 14 -12 13 -3 -5z"/>
<path d="M2950 2921 c0 -5 5 -13 10 -16 6 -3 10 -2 10 4 0 5 -4 13 -10 16 -5
3 -10 2 -10 -4z"/>
<path d="M7556 2897 c3 -10 9 -15 12 -12 3 3 0 11 -7 18 -10 9 -11 8 -5 -6z"/>
<path d="M5540 2883 c-38 -20 -54 -54 -64 -139 l-5 -49 13 58 c15 64 34 107
48 107 5 0 7 -4 4 -9 -3 -4 5 -6 18 -4 24 5 85 -21 98 -41 4 -6 8 -27 9 -46
l1 -35 8 35 c23 96 -49 164 -130 123z"/>
<path d="M7356 2887 c3 -10 9 -15 12 -12 3 3 0 11 -7 18 -10 9 -11 8 -5 -6z"/>
<path d="M2406 2882 c-2 -4 -1 -14 5 -22 7 -12 9 -10 9 8 0 23 -5 28 -14 14z"/>
<path d="M4120 2876 c0 -3 9 -10 20 -16 11 -6 20 -8 20 -6 0 3 -9 10 -20 16
-11 6 -20 8 -20 6z"/>
<path d="M7575 2855 c4 -11 9 -29 12 -40 3 -11 7 -27 11 -35 3 -8 6 -17 6 -20
3 -13 25 -44 26 -35 0 11 14 -14 62 -108 16 -33 32 -57 34 -54 3 3 -26 67 -65
143 -69 136 -101 192 -86 149z"/>
<path d="M2262 2840 c0 -14 2 -19 5 -12 2 6 2 18 0 25 -3 6 -5 1 -5 -13z"/>
<path d="M7376 2847 c3 -10 9 -15 12 -12 3 3 0 11 -7 18 -10 9 -11 8 -5 -6z"/>
<path d="M5048 2829 c-2 -6 -15 -12 -30 -12 -26 -2 -29 -24 -3 -24 8 0 12 4 9
9 -3 4 4 8 15 8 22 0 36 16 22 24 -5 4 -11 1 -13 -5z"/>
<path d="M8616 2790 c40 -22 94 -60 120 -86 27 -26 44 -44 38 -41 -6 4 -11 0
-11 -8 0 -8 4 -12 9 -9 8 5 38 -19 38 -31 0 -4 -6 -5 -14 -2 -8 3 -17 -1 -20
-9 -6 -16 2 -18 23 -5 21 13 71 -16 64 -37 -6 -15 -5 -15 10 -3 9 7 17 10 17
5 1 -10 70 -91 70 -81 0 15 -123 158 -172 200 -57 49 -213 147 -232 147 -6 0
21 -18 60 -40z"/>
<path d="M4960 2800 c0 -5 5 -10 10 -10 6 0 10 5 10 10 0 6 -4 10 -10 10 -5 0
-10 -4 -10 -10z"/>
<path d="M8320 2790 c0 -5 9 -10 20 -10 11 0 20 5 20 10 0 6 -9 10 -20 10 -11
0 -20 -4 -20 -10z"/>
<path d="M2991 2774 c0 -11 3 -14 6 -6 3 7 2 16 -1 19 -3 4 -6 -2 -5 -13z"/>
<path d="M2153 2765 c-39 -7 -109 -25 -154 -40 -74 -25 -80 -29 -59 -37 14 -5
33 -7 43 -4 15 4 18 0 14 -15 -3 -12 -1 -17 6 -12 6 4 8 0 4 -10 -3 -10 -2
-17 3 -17 6 0 10 7 10 15 0 8 4 15 10 15 5 0 7 7 4 15 -4 10 0 15 16 15 14 0
19 4 14 13 -4 7 -3 9 2 4 5 -5 10 -13 10 -18 3 -22 5 -23 14 -9 8 12 10 10 10
-10 0 -19 3 -21 9 -11 5 8 7 20 4 28 -3 8 2 13 12 13 10 0 15 -5 12 -13 -3 -8
1 -14 9 -14 23 0 24 25 1 32 -21 7 -21 7 -2 12 11 3 25 10 32 15 7 5 18 6 24
2 8 -4 9 -3 5 4 -4 6 5 18 21 26 33 18 21 18 -74 1z"/>
<path d="M7425 2746 c9 -22 28 -63 44 -92 27 -51 28 -52 9 -75 -49 -63 -56
-79 -15 -34 44 47 46 51 44 107 -1 56 -2 58 -34 69 -18 6 -33 14 -33 18 0 4
-7 16 -15 27 -14 17 -14 14 0 -20z"/>
<path d="M4630 2653 c-85 -57 -230 -152 -322 -210 -93 -57 -168 -106 -168
-108 0 -2 16 3 35 11 20 8 40 12 45 9 5 -3 13 3 19 12 6 10 11 13 11 7 0 -7 7
-15 16 -18 12 -4 14 -1 9 14 -4 12 -2 20 5 20 6 0 8 -4 5 -10 -3 -6 5 -10 19
-10 13 0 30 -2 38 -3 7 -2 9 -2 5 1 -5 2 2 16 15 30 l23 26 -33 -23 c-18 -13
-36 -20 -39 -17 -4 3 -1 6 6 6 7 0 9 5 6 10 -4 6 -3 10 2 9 20 -3 27 2 13 11
-11 7 -11 10 -2 10 7 0 11 4 7 9 -8 14 159 121 199 128 20 3 33 9 30 14 -3 5
-1 9 5 9 5 0 12 -6 14 -12 4 -10 6 -10 6 0 1 6 10 12 20 12 19 0 36 25 32 48
-2 12 7 15 42 15 11 0 16 5 13 13 -3 8 0 18 7 24 57 48 81 70 77 69 -3 0 -75
-48 -160 -106z"/>
<path d="M7580 2741 c0 -10 19 -25 25 -20 1 2 -3 10 -11 17 -8 7 -14 8 -14 3z"/>
<path d="M8238 2743 c7 -3 16 -2 19 1 4 3 -2 6 -13 5 -11 0 -14 -3 -6 -6z"/>
<path d="M2977 2720 c-3 -11 -1 -20 4 -20 5 0 9 9 9 20 0 11 -2 20 -4 20 -2 0
-6 -9 -9 -20z"/>
<path d="M8130 2729 c0 -5 23 -9 52 -9 28 0 48 3 44 7 -10 10 -96 12 -96 2z"/>
<path d="M8254 2729 c-17 -6 -17 -8 -2 -14 9 -3 28 -5 42 -3 l26 3 -23 11
c-13 6 -32 7 -43 3z"/>
<path d="M8050 2720 c0 -5 5 -10 11 -10 5 0 7 5 4 10 -3 6 -8 10 -11 10 -2 0
-4 -4 -4 -10z"/>
<path d="M5650 2706 c0 -9 -4 -15 -9 -12 -12 8 -21 -29 -21 -85 0 -25 -6 -68
-14 -95 -13 -45 -31 -172 -21 -149 10 24 75 348 70 353 -3 3 -5 -2 -5 -12z"/>
<path d="M2794 2688 c3 -13 5 -29 5 -35 1 -7 6 -13 11 -13 15 0 12 40 -5 56
-13 14 -15 13 -11 -8z"/>
<path d="M2863 2695 c0 -8 4 -12 9 -9 5 3 6 10 3 15 -9 13 -12 11 -12 -6z"/>
<path d="M1880 2680 c-8 -5 -10 -10 -5 -10 6 0 17 5 25 10 8 5 11 10 5 10 -5
0 -17 -5 -25 -10z"/>
<path d="M2971 2675 c-1 -30 8 -39 73 -74 33 -17 65 -40 73 -50 7 -11 33 -29
58 -41 25 -12 45 -25 45 -29 0 -4 14 -18 31 -30 18 -13 29 -19 25 -13 -10 16
15 27 26 11 8 -11 9 -10 4 3 -7 22 17 46 52 54 15 4 32 12 37 19 26 32 127 66
122 41 -1 -6 11 -9 30 -7 23 2 35 -3 45 -18 14 -23 29 -28 26 -8 -2 6 -11 15
-20 19 -11 4 -15 13 -12 23 3 8 10 12 15 10 5 -3 8 10 7 30 -1 24 5 40 18 51
20 17 14 14 -201 -106 -78 -44 -149 -82 -158 -86 -10 -4 -32 7 -59 29 -24 19
-83 61 -133 92 -55 34 -93 65 -97 78 -5 20 -6 20 -7 2z"/>
<path d="M5427 2517 c-21 -96 -37 -176 -37 -179 0 -3 -17 -2 -37 3 -64 15 -71
9 -13 -11 30 -11 56 -20 58 -20 2 0 0 -4 -3 -10 -3 -5 -2 -10 4 -10 18 0 38
53 31 85 -7 36 2 109 31 253 6 30 9 55 7 58 -3 2 -21 -74 -41 -169z"/>
<path d="M5590 2680 c0 -5 5 -10 10 -10 6 0 10 5 10 10 0 6 -4 10 -10 10 -5 0
-10 -4 -10 -10z"/>
<path d="M2220 2668 c-12 -8 -12 -9 2 -5 9 3 19 1 22 -6 3 -9 5 -9 5 0 1 18
-13 23 -29 11z"/>
<path d="M1804 2644 c-18 -14 -18 -14 6 -3 31 14 36 19 24 19 -6 0 -19 -7 -30
-16z"/>
<path d="M5596 2652 c-2 -4 -1 -14 5 -22 7 -12 9 -10 9 8 0 23 -5 28 -14 14z"/>
<path d="M2781 2634 c0 -11 3 -14 6 -6 3 7 2 16 -1 19 -3 4 -6 -2 -5 -13z"/>
<path d="M2830 2635 c0 -8 2 -15 4 -15 2 0 6 7 10 15 3 8 1 15 -4 15 -6 0 -10
-7 -10 -15z"/>
<path d="M2240 2631 c0 -7 -4 -9 -10 -6 -5 3 -10 -1 -10 -9 0 -9 -7 -16 -15
-16 -8 0 -15 5 -15 10 0 6 -5 10 -11 10 -6 0 -9 -6 -6 -12 2 -7 -3 -18 -12
-25 -12 -9 -4 -9 34 -1 28 6 61 10 75 10 22 -1 23 0 5 7 -11 5 -27 6 -35 3
-13 -5 -13 -3 -1 11 8 10 11 20 7 24 -3 3 -6 1 -6 -6z"/>
<path d="M1754 2614 c-18 -14 -18 -15 4 -4 12 6 22 13 22 15 0 8 -5 6 -26 -11z"/>
<path d="M2802 2610 c0 -14 2 -19 5 -12 2 6 2 18 0 25 -3 6 -5 1 -5 -13z"/>
<path d="M4840 2578 c-46 -32 -70 -37 -107 -24 -18 6 -23 4 -23 -11 0 -11 -3
-14 -8 -7 -4 6 -15 10 -24 8 -16 -2 -23 7 -19 29 2 11 -27 9 -34 -3 -3 -5 -1
-10 4 -10 6 0 11 -7 11 -15 0 -8 5 -15 11 -15 8 0 8 -5 -1 -15 -7 -8 -17 -12
-24 -8 -7 4 -7 1 1 -8 10 -12 10 -18 0 -29 -9 -10 -9 -11 1 -6 7 4 12 2 12 -6
0 -8 -6 -20 -12 -27 -11 -11 -10 -12 2 -6 29 16 260 176 260 180 0 8 -2 6 -50
-27z m-180 -78 c0 -5 -5 -10 -11 -10 -5 0 -7 5 -4 10 3 6 8 10 11 10 2 0 4 -4
4 -10z"/>
<path d="M1649 2549 c-128 -88 -251 -213 -335 -342 -51 -77 -139 -255 -131
-263 3 -3 8 3 11 14 8 24 35 37 42 19 2 -7 13 -13 23 -14 15 -1 18 5 16 39 -1
22 1 35 5 29 3 -7 14 -9 24 -5 12 5 14 9 6 14 -6 4 -13 23 -14 42 -2 19 -6 40
-10 47 -4 6 -3 11 2 11 6 0 17 17 25 38 9 20 28 51 44 69 15 18 44 53 63 78
40 53 162 165 179 165 7 0 10 -4 6 -9 -3 -5 13 0 35 12 23 13 44 33 49 50 6
15 14 27 19 27 6 0 12 7 16 15 3 8 4 15 2 15 -1 0 -36 -23 -77 -51z"/>
<path d="M8841 2562 c-6 -12 -6 -23 0 -33 9 -12 10 -12 6 1 -2 8 0 23 5 33 5
9 6 17 4 17 -3 0 -10 -8 -15 -18z"/>
<path d="M4597 2543 c-13 -12 -7 -23 11 -22 10 0 12 3 4 6 -6 2 -10 9 -6 14 6
10 0 12 -9 2z"/>
<path d="M8705 2500 c10 -11 20 -20 23 -20 3 0 -3 9 -13 20 -10 11 -20 20 -23
20 -3 0 3 -9 13 -20z"/>
<path d="M7396 2468 c-26 -40 -85 -172 -91 -203 l-5 -30 11 30 c16 41 30 57
46 51 8 -3 15 5 19 21 7 25 8 25 21 8 10 -15 16 -16 25 -7 16 16 28 15 24 0
-1 -7 -1 -9 2 -5 4 8 47 -52 45 -63 0 -3 -3 -18 -6 -35 -5 -26 -4 -24 12 10
18 39 18 41 0 61 -11 11 -19 26 -19 32 0 7 -5 12 -12 12 -6 0 -20 8 -30 17
-17 15 -20 15 -28 3 -8 -12 -10 -12 -10 4 0 13 5 17 20 13 23 -6 27 15 6 32
-8 7 -13 25 -12 41 3 36 1 37 -18 8z"/>
<path d="M8970 2450 c6 -11 13 -20 16 -20 2 0 0 9 -6 20 -6 11 -13 20 -16 20
-2 0 0 -9 6 -20z"/>
<path d="M4833 2425 c-13 -9 -28 -33 -34 -54 -13 -45 4 -89 43 -108 28 -14
538 -126 545 -120 2 3 -9 11 -26 18 -16 7 -26 16 -21 19 5 3 5 12 0 20 -8 13
-13 13 -31 2 -11 -8 -19 -9 -15 -4 3 5 -1 9 -9 9 -8 0 -11 -5 -8 -10 9 -14
-118 -2 -192 19 -33 9 -91 22 -129 30 -38 8 -74 19 -80 24 -8 8 -5 9 9 5 18
-6 18 -5 2 5 -9 6 -23 8 -30 4 -9 -5 -9 -4 1 7 14 16 16 33 2 24 -6 -3 -13 1
-17 10 -3 10 0 21 8 26 10 6 11 9 1 9 -7 0 -15 -7 -18 -15 -4 -8 -10 -15 -16
-15 -5 0 -6 4 -3 10 3 5 8 20 10 31 9 46 64 76 91 50 10 -11 41 -17 129 -25
57 -5 55 -4 -35 19 -112 29 -148 30 -177 10z"/>
<path d="M3518 2404 c-38 -20 -36 -28 2 -9 17 9 30 18 30 20 0 7 -1 6 -32 -11z"/>
<path d="M4535 2374 c-39 -25 -77 -47 -85 -49 -8 -2 -16 -4 -17 -5 -8 -6 -50
-3 -61 4 -8 4 -10 2 -6 -7 3 -8 -1 -14 -10 -14 -8 0 -13 4 -11 8 5 8 -19 19
-41 19 -8 0 -14 -8 -14 -17 0 -14 2 -15 9 -4 7 10 10 10 16 1 5 -8 1 -16 -8
-21 -9 -6 -13 -17 -10 -29 3 -12 -2 -29 -13 -42 -16 -18 -11 -17 31 7 53 31
274 172 290 187 22 20 -6 5 -70 -38z"/>
<path d="M8990 2417 c0 -4 9 -26 21 -48 22 -45 33 -99 18 -99 -15 0 -10 -27 6
-34 9 -3 12 -12 8 -22 -4 -12 -3 -15 5 -10 8 5 12 -1 12 -18 0 -14 5 -28 12
-32 7 -5 5 -11 -7 -21 -17 -12 -17 -13 -2 -13 9 0 17 -1 18 -2 0 -2 7 -39 14
-83 l14 -80 -6 85 c-7 108 -42 250 -82 326 -16 32 -30 55 -31 51z"/>
<path d="M1720 2380 c-9 -6 -10 -10 -3 -10 6 0 15 5 18 10 8 12 4 12 -15 0z"/>
<path d="M5125 2380 c19 -8 73 -14 64 -6 -2 2 -22 6 -44 9 -28 5 -34 4 -20 -3z"/>
<path d="M5208 2363 c7 -3 16 -2 19 1 4 3 -2 6 -13 5 -11 0 -14 -3 -6 -6z"/>
<path d="M1676 2348 c3 -5 10 -6 15 -3 13 9 11 12 -6 12 -8 0 -12 -4 -9 -9z"/>
<path d="M3411 2349 c-14 -5 -30 -8 -37 -5 -7 3 -15 -2 -18 -10 -4 -11 -16
-14 -41 -11 -19 3 -38 1 -41 -4 -3 -5 0 -9 6 -9 21 0 -8 -37 -42 -53 -18 -9
-27 -17 -19 -17 14 0 221 108 221 116 0 5 1 5 -29 -7z"/>
<path d="M5258 2353 c7 -3 16 -2 19 1 4 3 -2 6 -13 5 -11 0 -14 -3 -6 -6z"/>
<path d="M5571 2324 c0 -11 3 -14 6 -6 3 7 2 16 -1 19 -3 4 -6 -2 -5 -13z"/>
<path d="M4098 2314 c-38 -20 -36 -28 2 -9 17 9 30 18 30 20 0 7 -1 6 -32 -11z"/>
<path d="M7513 2315 c0 -8 4 -15 9 -15 4 0 8 4 8 9 0 6 -4 12 -8 15 -5 3 -9
-1 -9 -9z"/>
<path d="M5360 2296 c0 -8 5 -18 10 -21 6 -3 10 3 10 14 0 12 -4 21 -10 21 -5
0 -10 -6 -10 -14z"/>
<path d="M3942 2223 c-112 -65 -135 -84 -73 -60 27 10 33 9 41 -3 9 -14 15 -6
11 14 -1 5 6 3 15 -5 16 -13 16 -12 4 11 -10 20 -10 23 0 13 11 -10 21 -8 51
9 21 12 36 25 33 30 -3 4 0 8 5 8 6 0 11 6 11 14 0 8 6 16 13 19 6 2 10 7 7
10 -3 2 -56 -24 -118 -60z"/>
<path d="M5556 2265 c-4 -14 -11 -23 -17 -20 -5 4 -8 2 -7 -4 2 -5 -6 -17 -17
-25 -12 -9 -15 -15 -7 -16 8 0 10 -5 5 -12 -7 -13 -9 -18 -12 -37 0 -5 -9 -12
-18 -14 -17 -4 -17 -5 0 -6 30 -2 64 42 76 99 12 53 9 83 -3 35z"/>
<path d="M7436 2268 c3 -5 10 -6 15 -3 13 9 11 12 -6 12 -8 0 -12 -4 -9 -9z"/>
<path d="M7291 2214 c0 -11 3 -14 6 -6 3 7 2 16 -1 19 -3 4 -6 -2 -5 -13z"/>
<path d="M4234 2184 c-18 -14 -18 -15 4 -4 12 6 22 13 22 15 0 8 -5 6 -26 -11z"/>
<path d="M7275 2145 c-3 -26 -4 -49 -2 -51 3 -3 8 16 12 41 3 26 4 49 2 51 -3
3 -8 -16 -12 -41z"/>
<path d="M9020 2170 c0 -5 5 -10 10 -10 6 0 10 5 10 10 0 6 -4 10 -10 10 -5 0
-10 -4 -10 -10z"/>
<path d="M4187 2159 c-10 -6 -25 -8 -33 -5 -9 3 -12 1 -9 -4 9 -14 -9 -12 -24
3 -11 10 -14 10 -18 0 -3 -7 -11 -13 -18 -13 -9 0 -11 -8 -8 -22 3 -13 2 -20
-2 -16 -4 4 -21 -2 -36 -13 -22 -16 -27 -17 -23 -5 8 22 -15 20 -32 -1 -7 -10
-14 -26 -14 -35 0 -10 -13 -24 -29 -33 -17 -8 -33 -19 -36 -25 -7 -11 12 -1
188 102 64 38 117 71 117 74 0 6 -2 5 -23 -7z"/>
<path d="M3668 2068 c-82 -45 -146 -83 -144 -85 2 -3 18 3 35 12 23 12 31 12
31 3 0 -9 3 -8 10 2 5 8 10 11 10 6 0 -5 8 -2 17 5 14 12 16 12 8 -1 -5 -8 4
-5 19 8 16 12 33 19 39 15 6 -3 7 -1 3 6 -10 15 31 54 85 81 21 11 39 23 39
25 0 7 5 10 -152 -77z"/>
<path d="M5408 2133 c6 -2 18 -2 25 0 6 3 1 5 -13 5 -14 0 -19 -2 -12 -5z"/>
<path d="M7265 1959 c3 -118 23 -232 46 -269 7 -11 8 -8 3 10 -15 53 -12 90 7
101 18 9 18 11 3 27 -12 11 -13 17 -5 20 8 3 6 9 -6 19 -15 12 -15 14 -2 10
12 -4 18 2 21 18 5 25 -7 45 -28 45 -14 0 -25 29 -35 95 -5 32 -6 5 -4 -76z"/>
<path d="M3747 1969 c-14 -8 -15 -14 -7 -24 9 -11 6 -12 -12 -8 -19 4 -20 3
-8 -6 13 -10 10 -15 -16 -39 -17 -15 -39 -33 -50 -40 -10 -6 8 1 41 17 69 33
210 116 180 106 -54 -19 -86 -25 -97 -19 -7 4 -8 3 -4 -4 4 -7 2 -12 -5 -12
-6 0 -9 8 -6 20 3 11 4 20 4 20 -1 0 -10 -5 -20 -11z"/>
<path d="M3438 1944 c-38 -20 -36 -28 2 -9 17 9 30 18 30 20 0 7 -1 6 -32 -11z"/>
<path d="M1171 1923 c-1 -6 -4 -20 -7 -30 -5 -17 -5 -17 6 0 6 10 9 23 6 30
-3 9 -5 9 -5 0z"/>
<path d="M9093 1885 c0 -27 2 -38 4 -22 2 15 2 37 0 50 -2 12 -4 0 -4 -28z"/>
<path d="M1131 1783 c-39 -170 -44 -394 -12 -530 6 -27 7 -14 3 42 -10 118 -8
205 5 213 7 5 9 21 4 48 -11 60 -6 186 8 212 12 22 25 102 16 102 -2 0 -12
-39 -24 -87z"/>
<path d="M3641 1814 c0 -11 3 -14 6 -6 3 7 2 16 -1 19 -3 4 -6 -2 -5 -13z"/>
<path d="M3460 1781 c0 -6 4 -13 10 -16 6 -3 7 1 4 9 -7 18 -14 21 -14 7z"/>
<path d="M3652 1770 c0 -14 4 -38 8 -55 7 -27 8 -27 8 -5 0 14 -4 39 -8 55 -7
27 -8 27 -8 5z"/>
<path d="M9043 1678 c-13 -34 -21 -63 -19 -65 6 -6 47 108 44 118 -2 5 -13
-19 -25 -53z"/>
<path d="M3672 1650 c0 -19 2 -27 5 -17 2 9 2 25 0 35 -3 9 -5 1 -5 -18z"/>
<path d="M7320 1665 c0 -5 5 -17 10 -25 5 -8 10 -10 10 -5 0 6 -5 17 -10 25
-5 8 -10 11 -10 5z"/>
<path d="M7340 1617 c-1 -17 61 -126 104 -183 128 -171 315 -295 523 -346 118
-29 315 -31 421 -4 92 23 89 32 -4 10 -42 -9 -89 -13 -119 -10 -27 3 -51 6
-53 6 -2 0 0 5 3 10 3 6 -1 10 -10 10 -12 0 -15 -5 -11 -17 5 -15 3 -15 -11 2
-10 11 -17 18 -16 16 2 -2 -7 -9 -20 -16 -18 -9 -24 -8 -35 4 -11 14 -12 14
-10 1 2 -10 -6 -15 -25 -16 -15 -1 -30 2 -32 7 -3 4 -15 5 -27 1 -13 -3 -19
-1 -15 5 6 10 -8 13 -54 13 -72 0 -265 94 -275 135 -3 14 -10 25 -16 25 -5 0
-6 5 -2 12 4 6 3 8 -3 5 -6 -4 -16 0 -23 8 -7 8 -16 12 -21 9 -5 -3 -9 2 -9
10 0 10 -7 13 -22 11 -16 -4 -34 8 -68 43 -37 39 -47 58 -59 110 -9 42 -17 59
-22 50 -5 -8 -9 -9 -9 -2 0 7 -9 14 -19 17 -11 2 -29 22 -40 43 -11 22 -20 35
-21 31z"/>
<path d="M3668 1575 c-13 -29 -13 -37 -2 -43 9 -5 14 -35 17 -92 2 -68 3 -60
5 43 1 70 1 127 -1 127 -2 0 -10 -16 -19 -35z"/>
<path d="M8997 1565 c-9 -19 -15 -35 -12 -35 7 0 37 61 33 66 -3 2 -12 -12
-21 -31z"/>
<path d="M8938 1468 c-44 -58 -85 -97 -93 -90 -5 4 -5 2 -2 -4 4 -7 -2 -14
-13 -17 -11 -3 -20 -12 -20 -21 0 -9 -17 -32 -37 -52 -35 -33 -33 -33 15 6 56
45 97 90 150 164 38 52 37 63 0 14z"/>
<path d="M7625 1351 c-6 -11 9 -23 19 -14 9 9 7 23 -3 23 -6 0 -12 -4 -16 -9z"/>
<path d="M3662 1280 c-22 -130 -22 -137 -2 -60 11 41 19 89 18 105 -2 19 -8 2
-16 -45z"/>
<path d="M8709 1233 c-13 -16 -12 -17 4 -4 9 7 17 15 17 17 0 8 -8 3 -21 -13z"/>
<path d="M8679 1215 c-3 -2 -16 -7 -30 -9 -13 -2 -25 -5 -26 -7 -4 -2 -20 -6
-34 -8 -5 0 -7 -7 -3 -13 5 -9 2 -9 -9 1 -15 12 -17 11 -17 -3 0 -9 -15 -25
-32 -36 -50 -30 -25 -24 55 14 66 31 121 65 106 66 -3 0 -8 -2 -10 -5z"/>
<path d="M1135 1176 c9 -56 61 -206 75 -220 10 -9 10 -6 1 11 -17 34 -8 86 17
98 25 11 30 28 7 19 -9 -4 -15 0 -15 10 0 9 -8 16 -17 16 -15 0 -15 2 -2 13 8
6 13 11 10 10 -2 -1 -10 5 -18 13 -8 8 -18 12 -23 9 -4 -2 -15 10 -24 28 l-17
32 6 -39z"/>
<path d="M3611 1086 c-14 -28 -26 -58 -27 -66 -2 -8 -6 -28 -9 -45 -5 -23 -4
-26 4 -15 13 18 65 170 60 175 -2 1 -15 -20 -28 -49z"/>
<path d="M1220 936 c0 -11 40 -86 45 -86 3 0 -4 19 -16 43 -23 45 -29 54 -29
43z"/>
<path d="M3535 885 c-16 -30 -32 -55 -37 -55 -4 0 -8 -6 -8 -13 0 -7 -16 -36
-35 -65 -20 -28 -33 -52 -31 -52 14 0 152 227 143 236 -2 3 -17 -20 -32 -51z"/>
<path d="M1281 820 c18 -37 95 -144 116 -160 17 -14 17 -13 -1 7 -11 14 -17
32 -14 47 4 18 -1 27 -18 35 -14 6 -21 16 -18 24 3 8 -3 20 -12 28 -12 9 -15
10 -10 2 14 -25 -13 -13 -34 15 -20 26 -20 26 -9 2z"/>
<path d="M3365 642 c-27 -26 -58 -53 -68 -61 -16 -12 -17 -12 -11 5 4 10 4 16
0 12 -4 -3 -8 -13 -10 -21 -3 -23 -27 -48 -39 -40 -6 3 -7 1 -3 -5 6 -11 -5
-16 -26 -13 -4 0 -4 -7 -1 -17 6 -15 5 -16 -13 -2 -18 14 -18 14 -5 -2 7 -10
10 -18 5 -18 -5 -1 -29 -19 -54 -42 l-45 -41 49 34 c80 56 178 142 229 202 27
32 47 57 45 57 -2 0 -25 -22 -53 -48z"/>
<path d="M1499 552 c75 -73 172 -148 221 -171 21 -10 22 -9 5 1 -23 16 -64 56
-87 88 -10 13 -26 24 -36 25 -22 1 -72 35 -133 89 -25 23 -11 8 30 -32z"/>
<path d="M3030 372 c-19 -9 -41 -22 -47 -29 -7 -6 -36 -19 -65 -28 -29 -10
-58 -21 -64 -26 -5 -5 -44 -19 -85 -33 -41 -13 -66 -24 -57 -25 28 -2 189 59
268 101 94 50 129 78 50 40z"/>
<path d="M1750 365 c0 -14 247 -122 256 -112 2 2 -14 12 -36 22 -22 10 -38 21
-35 25 2 4 -1 7 -8 8 -7 0 -19 3 -27 5 -57 18 -61 20 -49 27 7 5 -3 8 -23 8
-20 0 -45 5 -57 11 -11 7 -21 9 -21 6z"/>
<path d="M2020 246 c0 -2 42 -15 93 -27 76 -19 121 -23 262 -23 151 -1 326 16
312 31 -3 2 -36 -1 -73 -8 -129 -23 -389 -15 -517 15 -75 18 -77 18 -77 12z"/>
</g>
</svg>
